<svg width="155" height="47" viewBox="0 0 155 47" fill="none" xmlns="http://www.w3.org/2000/svg">
<g opacity="0.6">
<path d="M15.0848 17.3989L0.777344 23.9059L15.0848 32.3588L29.3867 23.9059L15.0848 17.3989Z" fill="#010101"/>
</g>
<g opacity="0.45">
<path d="M0.777344 23.9045L15.0848 32.3574V0.165527L0.777344 23.9045Z" fill="#010101"/>
</g>
<g opacity="0.8">
<path d="M15.082 0.165771V32.3576L29.3839 23.9047L15.082 0.165771Z" fill="#010101"/>
</g>
<g opacity="0.45">
<path d="M0.777344 26.615L15.0848 46.7715V35.0679L0.777344 26.615Z" fill="#010101"/>
</g>
<g opacity="0.8">
<path d="M15.082 35.0679V46.7715L29.3951 26.615L15.082 35.0679Z" fill="#010101"/>
</g>
<path d="M54.6522 27.5968C54.6522 27.8386 54.4497 28.0354 54.2079 28.0354H45.6481C45.8618 30.15 47.4534 32.0791 49.6918 32.0791C51.2215 32.0791 52.3576 31.4942 53.2124 30.2738C53.3362 30.1051 53.5217 29.9982 53.758 30.0994C53.8873 30.1557 53.9773 30.2738 53.9998 30.4088C54.0223 30.5494 53.9829 30.6281 53.9435 30.7068C53.0831 32.2084 51.3677 32.9452 49.6862 32.9452C46.8067 32.9452 44.7539 30.3694 44.7539 27.6136C44.7539 24.8579 46.8067 22.2821 49.6862 22.2821C52.5657 22.2764 54.6465 24.8466 54.6522 27.5968ZM53.7355 27.1806C53.5499 25.0659 51.9301 23.1369 49.6918 23.1369C47.4534 23.1369 45.8618 25.0659 45.6481 27.1806H53.7355ZM65.0397 22.4901C65.2872 22.4901 65.4672 22.7039 65.4672 22.9176C65.4672 23.165 65.2816 23.345 65.0397 23.345H62.7451V32.349C62.7451 32.5628 62.5595 32.7765 62.3177 32.7765C62.0702 32.7765 61.8903 32.5628 61.8903 32.349V23.345H59.6857C59.4382 23.345 59.2582 23.1594 59.2582 22.9176C59.2582 22.7039 59.4438 22.4901 59.6857 22.4901H61.8903V19.1945C61.8903 18.9864 62.0309 18.7952 62.2333 18.7614C62.5202 18.7164 62.7451 18.9133 62.7451 19.1832V22.4901H65.0397ZM79.0379 26.8431V32.2984C79.0379 32.5459 78.8242 32.7259 78.6105 32.7259C78.363 32.7259 78.1831 32.5403 78.1831 32.2984V26.8431C78.1831 25.0041 77.1426 23.165 75.0898 23.165C72.4578 23.165 71.3218 25.4652 71.4736 27.8217C71.4736 27.8836 71.5017 28.1592 71.5017 28.1873V32.2816C71.5017 32.4896 71.3611 32.6809 71.1587 32.7146C70.8718 32.7596 70.6469 32.5628 70.6469 32.2928V14.3747C70.6469 14.161 70.8325 13.9473 71.0743 13.9473C71.3218 13.9473 71.5017 14.161 71.5017 14.3747V24.5148C72.2385 23.1988 73.5545 22.3102 75.0842 22.3102C77.5982 22.3102 79.0379 24.5148 79.0379 26.8431ZM94.3858 27.5968C94.3858 27.8386 94.1834 28.0354 93.9415 28.0354H85.3762C85.5899 30.15 87.1815 32.0791 89.4198 32.0791C90.9496 32.0791 92.0856 31.4942 92.9405 30.2738C93.0642 30.1051 93.2498 29.9982 93.486 30.0994C93.6154 30.1557 93.7053 30.2738 93.7278 30.4088C93.7503 30.5494 93.711 30.6281 93.6716 30.7068C92.8111 32.2084 91.0958 32.9452 89.4142 32.9452C86.5347 32.9452 84.4819 30.3694 84.4819 27.6136C84.4819 24.8579 86.5347 22.2821 89.4142 22.2821C92.2993 22.2764 94.3802 24.8466 94.3858 27.5968ZM93.4635 27.1806C93.2779 25.0659 91.6582 23.1369 89.4198 23.1369C87.1815 23.1369 85.5899 25.0659 85.3762 27.1806H93.4635ZM104.891 22.8894C104.891 23.165 104.74 23.3169 104.492 23.3506C101.978 23.7162 100.848 25.7689 100.848 28.1592V32.2534C100.848 32.4615 100.707 32.6527 100.505 32.6865C100.218 32.7315 99.993 32.5346 99.993 32.2647V22.9344C99.993 22.7264 100.134 22.5351 100.336 22.5014C100.623 22.4564 100.848 22.6532 100.848 22.9232V24.8241C101.551 23.6318 102.962 22.4958 104.43 22.4958C104.644 22.4901 104.891 22.6476 104.891 22.8894ZM118.952 27.5968C118.952 27.8386 118.749 28.0354 118.507 28.0354H109.947C110.161 30.15 111.753 32.0791 113.991 32.0791C115.521 32.0791 116.657 31.4942 117.512 30.2738C117.636 30.1051 117.821 29.9982 118.057 30.0994C118.187 30.1557 118.277 30.2738 118.299 30.4088C118.322 30.5494 118.282 30.6281 118.243 30.7068C117.382 32.2084 115.667 32.9452 113.986 32.9452C111.106 32.9452 109.053 30.3694 109.053 27.6136C109.053 24.8579 111.106 22.2821 113.986 22.2821C116.865 22.2764 118.946 24.8466 118.952 27.5968ZM118.035 27.1806C117.849 25.0659 116.23 23.1369 113.991 23.1369C111.753 23.1369 110.161 25.0659 109.947 27.1806H118.035ZM132.77 22.9963V32.349C132.77 32.5965 132.556 32.7765 132.342 32.7765C132.095 32.7765 131.915 32.5909 131.915 32.349V30.5719C131.212 31.9835 129.952 32.9902 128.361 32.9902C125.818 32.9902 124.407 30.7856 124.407 28.4572V22.9738C124.407 22.7601 124.592 22.5464 124.834 22.5464C125.082 22.5464 125.262 22.7601 125.262 22.9738V28.4572C125.262 30.2963 126.302 32.1353 128.355 32.1353C131.234 32.1353 131.909 29.4414 131.909 26.4663V22.9738C131.909 22.7263 132.157 22.4733 132.46 22.5633C132.646 22.6251 132.77 22.8051 132.77 22.9963ZM154.422 26.8094V32.2928C154.422 32.5403 154.208 32.7202 153.995 32.7202C153.747 32.7202 153.567 32.5346 153.567 32.2928V26.8094C153.567 24.9703 152.527 23.165 150.474 23.165C147.898 23.165 146.92 25.9208 146.92 28.0635V32.2928C146.92 32.5403 146.706 32.7202 146.492 32.7202C146.245 32.7202 146.065 32.5346 146.065 32.2928V26.8094C146.065 24.9703 145.024 23.165 142.972 23.165C140.368 23.165 139.294 25.2178 139.389 27.9454C139.389 28.0073 139.417 28.131 139.389 28.1592V32.2816C139.389 32.4896 139.249 32.6809 139.041 32.7146C138.754 32.7596 138.529 32.5628 138.529 32.2928V22.9344C138.529 22.7264 138.669 22.5351 138.872 22.5014C139.159 22.4564 139.384 22.6532 139.384 22.9232V24.4867C140.12 23.1706 141.436 22.3102 142.966 22.3102C144.71 22.3102 146.059 23.4125 146.61 25.0378C147.313 23.4462 148.691 22.3102 150.469 22.3102C152.982 22.3102 154.422 24.481 154.422 26.8094Z" fill="#3C3C3B"/>
</svg>
