<svg width="74" height="45" viewBox="0 0 74 45" fill="none" xmlns="http://www.w3.org/2000/svg">
<path d="M20.8973 16.5051C20.8973 17.402 20.9942 18.1292 21.1639 18.6625C21.3578 19.1958 21.6002 19.7776 21.9396 20.4079C22.0608 20.6018 22.1093 20.7957 22.1093 20.9654C22.1093 21.2078 21.9639 21.4502 21.6487 21.6926L20.1215 22.7108C19.9034 22.8562 19.6852 22.9289 19.4913 22.9289C19.2489 22.9289 19.0065 22.8077 18.7641 22.5895C18.4247 22.2259 18.1338 21.8381 17.8914 21.4502C17.649 21.0381 17.4066 20.5776 17.1399 20.02C15.2491 22.2502 12.8735 23.3653 10.0131 23.3653C7.97686 23.3653 6.35272 22.7835 5.16492 21.6199C3.97712 20.4563 3.37109 18.9049 3.37109 16.9657C3.37109 14.9052 4.09832 13.2326 5.57701 11.972C7.05571 10.7115 9.01922 10.0812 11.516 10.0812C12.3402 10.0812 13.1887 10.154 14.0856 10.2752C14.9825 10.3964 15.9036 10.5903 16.8733 10.8085V9.03889C16.8733 7.19658 16.4854 5.91181 15.7339 5.16035C14.9582 4.40888 13.6492 4.04527 11.7827 4.04527C10.9343 4.04527 10.0616 4.14223 9.16467 4.3604C8.26775 4.57856 7.39508 4.84521 6.54665 5.18459C6.1588 5.35427 5.86791 5.45124 5.69822 5.49972C5.52853 5.5482 5.40733 5.57244 5.31036 5.57244C4.97099 5.57244 4.80131 5.33003 4.80131 4.82097V3.63317C4.80131 3.24532 4.84979 2.95443 4.97099 2.78474C5.0922 2.61505 5.31036 2.44537 5.64974 2.27568C6.49817 1.83934 7.51629 1.47573 8.70409 1.18484C9.89189 0.869708 11.1524 0.724263 12.4857 0.724263C15.3703 0.724263 17.4793 1.37877 18.8368 2.68778C20.17 3.99678 20.8488 5.98454 20.8488 8.65103V16.5051H20.8973ZM11.0555 20.1897C11.8554 20.1897 12.6796 20.0443 13.5523 19.7534C14.4249 19.4625 15.2006 18.9292 15.8552 18.2019C16.243 17.7414 16.5339 17.2323 16.6793 16.6505C16.8248 16.0687 16.9218 15.3658 16.9218 14.5416V13.5235C16.2188 13.3538 15.4673 13.2083 14.6916 13.1114C13.9159 13.0144 13.1644 12.9659 12.4129 12.9659C10.7888 12.9659 9.601 13.281 8.80105 13.9355C8.0011 14.5901 7.61325 15.5112 7.61325 16.7233C7.61325 17.8626 7.90414 18.711 8.51016 19.2928C9.09194 19.8988 9.94037 20.1897 11.0555 20.1897ZM30.5209 22.8077C30.0846 22.8077 29.7937 22.735 29.5997 22.5653C29.4058 22.4199 29.2361 22.0805 29.0907 21.6199L23.3941 2.8817C23.2486 2.39688 23.1759 2.08175 23.1759 1.91207C23.1759 1.52421 23.3698 1.30604 23.7577 1.30604H26.1333C26.5939 1.30604 26.909 1.37877 27.0787 1.54845C27.2726 1.6939 27.4181 2.03327 27.5635 2.49385L31.636 18.5413L35.4175 2.49385C35.5388 2.00903 35.6842 1.6939 35.8781 1.54845C36.0721 1.40301 36.4114 1.30604 36.8478 1.30604H38.787C39.2476 1.30604 39.5627 1.37877 39.7567 1.54845C39.9506 1.6939 40.1203 2.03327 40.2172 2.49385L44.0473 18.7352L48.241 2.49385C48.3864 2.00903 48.5561 1.6939 48.7258 1.54845C48.9197 1.40301 49.2349 1.30604 49.6712 1.30604H51.9256C52.3134 1.30604 52.5316 1.49997 52.5316 1.91207C52.5316 2.03327 52.5074 2.15448 52.4831 2.29992C52.4589 2.44537 52.4104 2.63929 52.3134 2.90594L46.4714 21.6442C46.3259 22.129 46.1563 22.4441 45.9623 22.5895C45.7684 22.735 45.4533 22.832 45.0412 22.832H42.9565C42.4959 22.832 42.1808 22.7592 41.9868 22.5895C41.7929 22.4199 41.6232 22.1047 41.5263 21.6199L37.7689 5.98454L34.0358 21.5957C33.9146 22.0805 33.7692 22.3956 33.5752 22.5653C33.3813 22.735 33.0419 22.8077 32.6056 22.8077H30.5209ZM61.6704 23.4622C60.4099 23.4622 59.1494 23.3168 57.9373 23.0259C56.7253 22.735 55.7799 22.4199 55.1496 22.0562C54.7618 21.8381 54.4951 21.5957 54.3982 21.3775C54.3012 21.1593 54.2527 20.9169 54.2527 20.6988V19.4625C54.2527 18.9534 54.4466 18.711 54.8103 18.711C54.9557 18.711 55.1012 18.7352 55.2466 18.7837C55.392 18.8322 55.6102 18.9292 55.8526 19.0261C56.6768 19.3898 57.5737 19.6806 58.5191 19.8746C59.4888 20.0685 60.4341 20.1655 61.4038 20.1655C62.931 20.1655 64.1188 19.8988 64.943 19.3655C65.7671 18.8322 66.2035 18.0565 66.2035 17.0626C66.2035 16.3839 65.9853 15.8263 65.549 15.3658C65.1126 14.9052 64.2884 14.4931 63.1006 14.1052L59.5857 13.0144C57.8161 12.4569 56.5071 11.6327 55.7072 10.5418C54.9072 9.47523 54.4951 8.28742 54.4951 7.02689C54.4951 6.00878 54.7133 5.11186 55.1496 4.33616C55.586 3.56045 56.1677 2.8817 56.895 2.3484C57.6222 1.79086 58.4464 1.37877 59.416 1.08788C60.3857 0.796986 61.4038 0.675781 62.4704 0.675781C63.0037 0.675781 63.5612 0.700022 64.0945 0.772745C64.6521 0.845467 65.1611 0.942431 65.6702 1.03939C66.155 1.1606 66.6156 1.2818 67.0519 1.42725C67.4882 1.57269 67.8276 1.71814 68.07 1.86358C68.4094 2.05751 68.6518 2.25144 68.7972 2.46961C68.9427 2.66353 69.0154 2.93018 69.0154 3.26956V4.40888C69.0154 4.91794 68.8215 5.18459 68.4579 5.18459C68.264 5.18459 67.9488 5.08762 67.5367 4.8937C66.155 4.26343 64.6036 3.9483 62.8825 3.9483C61.5007 3.9483 60.4099 4.16647 59.6584 4.62705C58.907 5.08762 58.5191 5.79061 58.5191 6.78449C58.5191 7.46323 58.7615 8.04501 59.2463 8.50559C59.7312 8.96617 60.6281 9.42674 61.9128 9.83884L65.355 10.9297C67.1004 11.4872 68.3609 12.2629 69.1124 13.2568C69.8638 14.2507 70.2275 15.39 70.2275 16.6505C70.2275 17.6929 70.0093 18.6383 69.5972 19.4625C69.1609 20.2867 68.5791 21.0139 67.8276 21.5957C67.0761 22.2017 66.1792 22.638 65.1369 22.9532C64.046 23.2925 62.9067 23.4622 61.6704 23.4622Z" fill="#252F3E"/>
<path fill-rule="evenodd" clip-rule="evenodd" d="M66.25 35.2448C58.2747 41.1354 46.6876 44.2624 36.7246 44.2624C22.7618 44.2624 10.1808 39.0991 0.678362 30.5179C-0.0731061 29.8391 0.605639 28.918 1.50255 29.4513C11.7807 35.4145 24.4587 39.0264 37.573 39.0264C46.4209 39.0264 56.1415 37.1841 65.0864 33.4025C66.4197 32.7965 67.559 34.2752 66.25 35.2448Z" fill="#FF9900"/>
<path fill-rule="evenodd" clip-rule="evenodd" d="M69.5725 31.4639C68.5544 30.1549 62.8336 30.8336 60.2398 31.1487C59.4641 31.2457 59.3429 30.567 60.0458 30.0579C64.6031 26.8581 72.0936 27.7793 72.9662 28.8459C73.8389 29.9367 72.7238 37.4271 68.4574 41.0148C67.8029 41.5723 67.1727 41.2814 67.4636 40.5542C68.4332 38.1544 70.5906 32.7486 69.5725 31.4639Z" fill="#FF9900"/>
</svg>
