<svg width="171" height="28" viewBox="0 0 171 28" fill="none" xmlns="http://www.w3.org/2000/svg">
<g clip-path="url(#clip0_5601_58936)">
<path d="M33.535 26.4345C32.8742 25.968 31.8246 25.3849 31.2026 25.1517C30.0753 24.7046 30.0364 24.6852 18.5107 24.588C7.39309 24.4908 6.92662 24.4714 6.28522 24.1021C5.17734 23.4413 4.90524 22.6833 4.90524 20.1954C4.90524 17.5521 4.49707 15.3169 3.83624 14.1701C3.3892 13.4121 3.25315 13.3149 2.63118 13.3149C1.75655 13.3149 0.687546 12.5375 0.318255 11.6434C-0.0704721 10.691 -0.0316003 10.6133 0.76529 10.7299C4.61369 11.3324 6.26578 14.1118 6.26578 20.001C6.26578 21.1867 6.34353 21.692 6.55733 21.8669C7.15985 22.3528 7.2376 21.8669 7.2376 17.9991C7.2376 13.6648 7.15985 13.2955 5.87705 11.3324C5.44945 10.6522 5.04129 9.93301 5.00242 9.71921C4.90524 9.29161 4.51651 2.54719 4.51651 1.41988V0.681301H5.56607C6.42127 0.681301 6.65451 0.759047 6.73225 1.03116C6.84887 1.41988 7.93731 6.8815 8.11224 7.91163C8.20942 8.53359 8.34547 8.70852 9.02574 9.03894C10.0947 9.54428 10.1725 9.54428 12.5049 8.74739C13.6127 8.3781 14.6623 8.06712 14.8372 8.06712C15.2259 8.06712 15.7896 8.66965 15.7896 9.09725C15.7896 9.27217 15.8673 9.42766 15.9645 9.42766C16.0617 9.42766 16.1783 9.60259 16.2366 9.81639C16.3144 10.1079 16.4504 10.1662 16.9752 10.1079C18.7634 9.8747 22.5923 9.62203 24.4971 9.62203H26.6156L26.7323 8.68908C27.0627 5.94855 27.2959 4.1021 27.5097 2.52776L27.743 0.778483L28.8703 0.720173L29.9976 0.661865L29.881 2.56663C29.8226 3.61619 29.6866 5.87081 29.5894 7.58121L29.4339 10.691L29.9781 11.2741C30.2697 11.6045 31.0083 12.829 31.6108 13.9952C32.1939 15.1808 32.9519 16.4053 33.2629 16.6969C33.8071 17.2216 34.0015 17.2605 35.8479 17.3771C37.2279 17.4743 38.0054 17.6104 38.3552 17.8436C38.88 18.1935 39.3076 18.932 39.3076 19.4957C39.3076 19.6901 38.1803 20.9534 36.8003 22.3334L34.2736 24.8601L34.7595 25.4238C35.2648 26.0263 35.4203 27.3286 34.9927 27.2897C34.8567 27.2702 34.1958 26.8815 33.535 26.4345ZM34.604 22.6055C35.2065 22.003 34.6623 21.1284 33.846 21.381C33.2046 21.5948 33.4961 22.8388 34.157 22.8388C34.2736 22.8388 34.4679 22.7416 34.604 22.6055Z" fill="black"/>
<path d="M50.1124 19.0466C48.5186 18.4829 47.4301 17.2585 46.9831 15.5481C46.7499 14.6345 46.6916 13.2157 46.6916 8.72589C46.6916 2.62287 46.7304 2.81724 45.7003 2.81724C45.3505 2.81724 45.3116 2.70062 45.3699 1.90373L45.4282 0.970781L46.8665 0.912472C47.8966 0.873599 48.402 0.931908 48.7518 1.16514C49.1989 1.45669 49.2183 1.53444 49.2183 3.98342C49.2183 5.38283 49.296 6.51014 49.3932 6.51014C49.4904 6.51014 49.6653 6.39353 49.7819 6.23803C50.2679 5.65494 51.7256 5.1496 52.8918 5.1496C55.5351 5.1496 57.1095 6.62676 57.8675 9.8532C58.8199 13.896 57.1289 18.0165 54.1163 19.0272C53.0278 19.4159 51.1231 19.4159 50.1124 19.0466ZM54.0385 16.6948C54.9909 15.9951 55.5351 14.6151 55.5934 12.5937C55.7489 8.66758 54.3301 6.76282 51.6673 7.32647C51.1619 7.42365 50.4817 7.77351 50.0152 8.18167L49.2183 8.88138V11.8163C49.2183 14.4013 49.2572 14.8483 49.6265 15.6064C50.229 16.8114 50.9676 17.239 52.3864 17.1418C53.1056 17.103 53.6887 16.9475 54.0385 16.6948Z" fill="black"/>
<path d="M63.8557 19.1262C62.9034 18.8541 61.951 17.7851 61.6789 16.755C61.5622 16.2108 61.4651 14.1894 61.4651 11.7015C61.4651 7.17285 61.4845 7.28947 60.3766 7.28947C59.949 7.28947 59.9102 7.21173 59.9102 6.41484C59.9102 5.63738 59.9685 5.5402 60.4155 5.42358C61.1346 5.24866 63.3698 5.46246 63.7002 5.73456C63.9529 5.92893 63.9918 6.80356 63.9918 11.0796C63.9918 15.997 64.0112 16.1913 64.4194 16.7161C64.8081 17.2215 64.9053 17.2409 66.1104 17.1631C67.432 17.0854 68.6176 16.6578 69.3951 15.9775C69.8033 15.5888 69.8227 15.4916 69.8227 11.546C69.8227 7.2506 69.8421 7.28947 68.8314 7.28947C68.5205 7.28947 68.4622 7.15342 68.4622 6.43427C68.4622 5.77344 68.5399 5.5402 68.812 5.46246C69.259 5.3264 71.6303 5.42358 71.9218 5.61795C72.0968 5.71513 72.1551 7.11455 72.1551 10.9435C72.1551 13.8007 72.2134 16.3468 72.2911 16.5801C72.3883 16.9882 72.5049 17.0271 73.2435 16.9688C74.1764 16.9105 74.157 16.891 74.3708 18.1933C74.4874 18.8735 74.4486 18.9319 73.8849 19.1262C73.088 19.3983 71.6692 19.3983 71.1249 19.1262C70.8917 19.0096 70.5224 18.6986 70.2892 18.4459L69.9004 17.96L68.6371 18.582C67.6264 19.0873 67.121 19.2234 65.9354 19.2623C65.1385 19.3011 64.1862 19.2428 63.8557 19.1262Z" fill="black"/>
<path d="M78.3551 19.0073C77.3056 18.3659 77.3056 18.4436 77.2472 10.4553L77.1889 3.03058L76.5087 2.89453C75.8284 2.77791 75.8284 2.75847 75.8867 1.8644L75.945 0.970326L77.3444 0.912016C79.7351 0.814835 79.5407 0.115127 79.5407 8.706C79.5407 12.7876 79.599 16.3251 79.6574 16.5777C79.7545 16.947 79.91 17.0053 80.6292 17.0053C81.5427 17.0053 81.5816 17.0248 81.7565 18.1909C81.8731 18.8518 81.8342 18.9295 81.2706 19.1239C80.3765 19.4349 78.9382 19.3766 78.3551 19.0073Z" fill="black"/>
<path d="M85.6629 18.9111C84.6328 18.0948 84.5939 17.8227 84.5939 10.1259C84.5939 2.48742 84.6328 2.81784 83.6027 2.81784C83.2528 2.81784 83.2139 2.70122 83.2722 1.8849L83.3305 0.971388L84.7883 0.913078C87.1984 0.815896 87.0235 0.15506 87.0623 8.97917C87.1012 13.1191 87.1206 16.6371 87.1206 16.7926C87.1206 16.9675 87.3539 17.0258 87.9953 16.9675C88.9477 16.9092 88.9282 16.8898 89.142 18.192C89.2586 18.8723 89.2198 18.9306 88.6561 19.1249C87.6065 19.4942 86.2654 19.3971 85.6629 18.9111Z" fill="black"/>
<path d="M94.8 19.0314C93.7504 18.6621 92.6425 17.7292 92.1955 16.8351C91.5541 15.5912 91.3986 13.9974 91.3986 8.43862C91.3986 2.64658 91.4375 2.82151 90.4073 2.82151C90.0575 2.82151 90.0186 2.70489 90.0769 1.908L90.1352 0.975054L91.4763 0.916745C92.2149 0.877872 93.0701 0.955618 93.3811 1.09167L93.9253 1.30547V3.90994C93.9253 6.28118 94.0419 6.90314 94.4112 6.32005C94.489 6.20344 94.9554 5.89245 95.4802 5.63978C96.6658 5.03725 98.4929 4.97895 99.659 5.52316C101.661 6.43667 102.769 8.78847 102.769 12.151C102.769 14.8137 102.264 16.2132 100.747 17.8458C99.4841 19.1869 96.763 19.7311 94.8 19.0314ZM98.7455 16.6991C99.0371 16.4853 99.523 15.8244 99.8145 15.2219C100.32 14.2501 100.378 13.9197 100.378 12.3065C100.378 10.149 99.8729 8.55524 98.9593 7.77778C98.0847 7.05864 96.6464 7.0392 95.383 7.77778C93.8864 8.63298 93.8865 8.63298 93.9642 11.9955C94.0225 15.3385 94.2557 16.0965 95.3442 16.8157C96.1411 17.3405 97.9292 17.2822 98.7455 16.6991Z" fill="black"/>
<path d="M108.849 18.9705C107.566 18.4651 106.886 17.9209 106.186 16.8519C104.378 14.0336 104.689 8.96074 106.808 6.72556C108.732 4.70418 112.581 4.58756 114.485 6.51176C115.593 7.61963 116.098 8.883 116.254 10.9238C116.312 11.9345 116.351 12.7897 116.293 12.848C116.254 12.8869 114.252 12.9258 111.861 12.9258H107.527V13.4894C107.527 14.8305 108.518 16.4826 109.587 16.9297C110.792 17.435 113.222 17.124 114.466 16.3271C114.913 16.0356 114.932 16.0356 115.302 16.9102C115.515 17.4156 115.69 17.882 115.69 17.9792C115.69 18.1541 114.174 18.815 113.066 19.126C111.881 19.4564 109.898 19.3786 108.849 18.9705ZM113.688 10.2241C113.552 9.11623 112.989 8.06667 112.308 7.65851C111.512 7.1726 109.957 7.1726 109.179 7.63907C108.577 8.0278 107.857 9.27172 107.624 10.3602L107.488 10.9821H110.656H113.805L113.688 10.2241Z" fill="black"/>
<path d="M120.046 18.97C117.248 17.6872 117.5 13.1974 120.455 11.7591C121.388 11.3121 123.836 10.8067 125.178 10.7873H125.994V9.91266C125.994 8.80478 125.586 7.77466 125.003 7.48311C124.206 7.05551 122.262 7.19157 121.038 7.75522C120.416 8.02733 119.852 8.26056 119.774 8.26056C119.697 8.26056 119.444 7.81353 119.23 7.28875L118.822 6.29749L119.347 6.08369C122.748 4.74258 125.916 4.83977 127.296 6.33636C128.268 7.40536 128.404 8.08564 128.482 12.5366C128.521 14.8301 128.637 16.7931 128.715 16.8903C128.812 16.9875 129.22 17.0652 129.629 17.0847L130.367 17.1041L130.425 18.0954C130.484 19.0672 130.464 19.0866 129.862 19.2227C128.054 19.5725 126.733 19.1449 126.344 18.0565L126.13 17.454L125.178 18.1731C123.564 19.3782 121.621 19.6891 120.046 18.97ZM124.089 16.6376C125.061 16.0157 125.702 14.9467 125.916 13.5278L126.052 12.6726L124.458 12.8087C121.757 13.0225 120.493 13.8971 120.493 15.5298C120.493 17.1819 122.34 17.7455 124.089 16.6376Z" fill="black"/>
<path d="M151.358 19.1079C150.017 18.6026 149.161 17.8057 148.481 16.4451C147.14 13.7823 147.101 10.692 148.365 8.12635C149.375 6.04666 150.93 5.15259 153.476 5.15259C154.234 5.15259 155.264 5.28864 155.75 5.4247C156.644 5.69681 157.869 6.26046 157.869 6.39652C157.869 6.51313 157.072 8.26241 157.014 8.26241C156.994 8.26241 156.586 8.06804 156.1 7.83481C155.517 7.54326 154.779 7.38777 153.787 7.32946C152.504 7.27115 152.252 7.31002 151.649 7.71819C150.6 8.4179 150.036 9.75901 149.939 11.7415C149.783 15.2206 150.988 17.2031 153.243 17.2031C154.332 17.2031 155.226 16.6395 155.731 15.6482C155.945 15.2206 156.159 14.8708 156.178 14.8708C156.217 14.8708 156.664 15.0068 157.169 15.1818C158.024 15.4733 158.083 15.551 157.966 16.0175C157.772 16.8727 156.839 18.0389 155.867 18.6414C155.09 19.1273 154.701 19.2245 153.437 19.2634C152.621 19.3023 151.688 19.2439 151.358 19.1079Z" fill="black"/>
<path d="M163.368 19.0287C162.163 18.5816 160.919 17.2988 160.433 15.9771C159.559 13.6448 159.461 11.2735 160.142 9.13554C160.744 7.26965 161.736 6.14234 163.388 5.46207C164.321 5.07334 166.77 5.05391 167.994 5.4232C168.966 5.71475 170.113 6.25896 170.113 6.43389C170.113 6.51164 169.355 8.08598 169.238 8.22204C169.219 8.24147 168.733 8.04711 168.15 7.775C167.333 7.40571 166.789 7.28909 165.662 7.28909C164.262 7.28909 164.223 7.30853 163.504 8.02767C162.591 8.92175 162.144 10.3406 162.144 12.2454C162.144 14.1501 162.591 15.569 163.504 16.4631C164.146 17.1045 164.359 17.2016 165.156 17.2016C165.662 17.2016 166.342 17.0656 166.672 16.9101C167.255 16.638 168.169 15.5107 168.169 15.0636C168.169 14.9665 168.227 14.8693 168.324 14.8693C168.674 14.8693 170.307 15.5495 170.307 15.6856C170.307 16.0549 169.51 17.3766 168.966 17.9208C168.655 18.2512 168.052 18.6594 167.644 18.8732C166.653 19.3396 164.457 19.4368 163.368 19.0287Z" fill="black"/>
<path d="M132.561 19.0107C132.289 18.9524 132.211 18.7192 132.211 18.0583C132.211 17.2226 132.211 17.2031 132.988 17.0865L133.766 16.9505V12.2469C133.766 7.11566 133.805 7.29059 132.677 7.29059C132.211 7.29059 132.192 7.23228 132.25 6.37708L132.308 5.44413H133.766C135.787 5.44413 135.904 5.50244 135.904 6.74637V7.75706L136.934 6.76581C138.042 5.65793 139.033 5.15259 140.083 5.15259H140.763V6.22159C140.763 7.21284 140.724 7.29059 140.238 7.40721C138.916 7.69875 138.411 7.95142 137.673 8.67057C136.526 9.81731 136.293 10.7308 136.293 14.1322V17.0088H136.856C137.167 17.0088 137.692 17.0671 138.022 17.1254C138.586 17.242 138.625 17.3003 138.625 18.0778V18.8941L137.614 19.0107C136.293 19.1273 132.988 19.1468 132.561 19.0107Z" fill="black"/>
<path d="M142.359 18.6962C141.465 17.7438 142.165 16.0334 143.448 16.0334C144.225 16.0334 145.041 16.8303 145.041 17.5884C145.041 18.9295 143.273 19.668 142.359 18.6962Z" fill="black"/>
<path d="M22.3995 8.22366C22.3995 7.97099 22.2634 6.29946 22.108 4.47245C21.9525 2.66486 21.8164 1.05165 21.8164 0.915591C21.8164 0.740664 22.0885 0.682355 22.8271 0.721228L23.8378 0.779537L24.4792 4.37526C24.8096 6.35777 25.1012 8.12648 25.1206 8.32085C25.1206 8.61239 24.9262 8.65126 23.76 8.65126C22.4772 8.65126 22.3995 8.63183 22.3995 8.22366Z" fill="black"/>
<path d="M9.84214 7.7385C9.90045 7.33034 10.0365 5.91149 10.1531 4.57038C10.2697 3.22927 10.4058 1.81042 10.4641 1.42169C10.5807 0.683106 10.5807 0.683105 11.5137 0.683105H12.4466L12.5827 2.49069C12.641 3.46251 12.6798 5.01741 12.641 5.91149L12.5827 7.54414L11.4165 7.99118C9.78383 8.61314 9.70608 8.59371 9.84214 7.7385Z" fill="black"/>
</g>
<defs>
<clipPath id="clip0_5601_58936">
<rect width="170.263" height="27.2109" fill="white" transform="translate(0.046875 0.297363)"/>
</clipPath>
</defs>
</svg>
