<svg width="123" height="52" viewBox="0 0 123 52" fill="none" xmlns="http://www.w3.org/2000/svg">
<mask id="mask0_7_79" style="mask-type:luminance" maskUnits="userSpaceOnUse" x="0" y="0" width="123" height="52">
<path d="M122.632 0.400146H0.0429688V51.1535H122.632V0.400146Z" fill="white"/>
</mask>
<g mask="url(#mask0_7_79)">
<path d="M50.1174 25.516C49.4668 25.0735 49.1024 24.9434 47.1763 24.605C44.8339 24.2146 44.2353 23.7722 44.2353 22.4708C44.2353 21.6379 44.5216 21.1694 45.3284 20.753C46.3174 20.2324 48.1394 20.4407 49.4928 21.1694C49.8051 21.3516 50.0914 21.4818 50.1695 21.4818C50.2476 21.4818 50.5599 21.0913 50.8722 20.6229C51.575 19.5818 51.549 19.5297 50.1695 18.905C47.3585 17.6037 44.2353 17.9681 42.8818 19.6859C42.2311 20.5187 41.9448 21.4297 41.9448 22.627C41.9448 23.4598 41.9969 23.7201 42.3353 24.4489C43.09 25.9845 44.0791 26.5311 46.7859 26.9735C48.5558 27.2598 49.1024 27.5201 49.4407 28.2489C49.8832 29.1598 49.5188 30.279 48.5818 30.8256C48.1914 31.0338 47.9311 31.0859 46.6298 31.0598C44.99 31.0598 44.2873 30.8516 43.1421 30.0708C42.5695 29.6804 42.5695 29.6804 42.3353 29.9407C42.2311 30.0708 41.8928 30.4872 41.6065 30.8256L41.0859 31.4502L41.5284 31.8146C42.2051 32.3872 43.3763 32.9598 44.4174 33.2461C45.7709 33.6105 48.1394 33.5585 49.2846 33.116C50.3517 32.7256 51.2887 31.7626 51.601 30.7735C52.2257 28.7174 51.627 26.6092 50.1174 25.516Z" fill="white"/>
<path d="M57.746 18.3049C56.1063 18.7474 54.6227 20.2309 54.2323 21.8446C53.8159 23.6145 53.8939 28.7939 54.3624 30.2254C54.8049 31.5008 56.1323 32.7761 57.4857 33.2186C58.6049 33.609 60.3487 33.5309 61.3638 33.0624C62.9254 32.3597 64.0967 30.8241 64.3049 29.1843C64.4611 28.1432 64.4611 23.5104 64.3049 22.4693C63.9145 19.398 60.8172 17.446 57.746 18.3049ZM62.1446 27.883C61.9104 30.0172 61.0515 31.0063 59.3857 31.0583C58.8391 31.0843 58.3967 31.0323 58.0843 30.9021C57.4857 30.6419 56.9652 30.1213 56.6268 29.4706C56.3665 28.9761 56.3405 28.7679 56.3405 25.7747C56.3405 22.7295 56.3405 22.5734 56.6268 22.0528C57.8761 19.6843 61.2597 19.9967 61.9884 22.5734C62.1967 23.3542 62.3008 26.5816 62.1446 27.883Z" fill="white"/>
<path d="M69.5886 31.1128L69.5626 24.684L69.5365 18.2292H68.4434H67.3242V25.7772V33.3251H72.0091H76.6941V32.206V31.1128H73.1544H69.5886Z" fill="white"/>
<path d="M79.0352 18.2292V25.7772V33.3251H80.1543H81.2475V25.7772V18.2292H80.1543H79.0352Z" fill="white"/>
<path d="M92.2314 18.932C91.1903 18.3334 90.5396 18.2292 87.3382 18.2292H84.3711V25.7772V33.3251L87.5985 33.2991L90.8259 33.2471L91.6848 32.8306C93.4286 31.9717 94.4177 30.5402 94.6519 28.6142C94.8081 27.3128 94.8081 23.9553 94.6519 22.784C94.4697 21.2745 93.4286 19.6347 92.2314 18.932ZM92.4656 27.5471C92.3615 28.9005 92.3094 29.2128 91.9971 29.7334C91.3464 30.8525 90.6697 31.1128 88.3273 31.1128H86.5834V25.7772V20.4155L88.5355 20.4676C90.4615 20.5197 90.4875 20.5197 91.0341 20.9101C91.3464 21.1183 91.7629 21.5868 91.9711 21.9512C92.3355 22.5238 92.3615 22.706 92.4656 24.2676C92.5177 25.2046 92.5177 26.6882 92.4656 27.5471Z" fill="white"/>
<path d="M97.6445 18.2292V25.7772V33.3251H98.7377H99.8569V25.7772V18.2292H98.7377H97.6445Z" fill="white"/>
<path d="M111.803 19.5046C111.803 19.1142 111.855 18.7758 111.881 18.7758C111.933 18.7758 112.896 20.7279 114.067 23.0964L116.176 27.4169V30.384V33.3512H117.217H118.258V30.2279V27.1046L120.392 22.8101C121.563 20.4676 122.526 18.4635 122.526 18.3854C122.526 18.3073 122.032 18.2292 121.329 18.2292H120.184L119.455 19.8429C119.065 20.7018 118.362 22.1594 117.971 23.0443C117.555 23.9032 117.191 24.632 117.112 24.632C117.06 24.632 116.332 23.2005 115.551 21.4566L114.093 18.3073L107.743 18.2553L101.418 18.2292V19.2703V20.3114H103.448H105.478V26.8183V33.3251L106.571 33.2991L107.691 33.2471V26.7923V20.3375H111.777L111.803 19.5046Z" fill="white"/>
<path d="M24.5867 0.606934L16.4922 15.0001H32.7333L24.5867 0.606934Z" fill="#EAEAEA"/>
<path d="M8.34583 0.606934L0.277344 15.0001H16.4924L8.34583 0.606934Z" fill="white"/>
<path d="M16.4942 15.0001L24.5887 0.606934H8.34766L16.4942 15.0001Z" fill="#F0F0F0"/>
<path d="M8.39789 29.3666L16.4924 14.9995H0.277344L8.39789 29.3666Z" fill="#F0F0F0"/>
<path d="M8.39789 50.9681L16.4924 36.575H0.277344L8.39789 50.9681Z" fill="#EAEAEA"/>
<path d="M24.6388 50.9681L32.7333 36.575H16.4922L24.6388 50.9681Z" fill="white"/>
<path d="M16.489 36.575L8.39453 50.9681H24.6356L16.489 36.575Z" fill="#F0F0F0"/>
<path d="M24.5867 22.1826L16.4922 36.5758H32.7333L24.5867 22.1826Z" fill="#F0F0F0"/>
</g>
</svg>
