<svg width="119" height="23" viewBox="0 0 119 23" fill="none" xmlns="http://www.w3.org/2000/svg">
<g clip-path="url(#clip0_5671_45644)">
<path d="M43.6954 7.84583V9.52544H45.5988V10.6395H43.6954V14.0158C43.6954 14.3072 43.7297 14.5129 43.8154 14.6328C43.9012 14.7699 44.0898 14.8214 44.3813 14.8214C44.6899 14.8214 45.0157 14.7528 45.3587 14.6157L45.7531 15.6612C45.0672 16.0039 44.3641 16.1753 43.644 16.1753C42.9238 16.1753 42.4436 16.0211 42.1864 15.7126C41.9292 15.4041 41.8092 14.9585 41.8092 14.3757V10.6395H41.209L41.0547 9.83394C41.1919 9.66255 41.4834 9.49116 41.9292 9.31977C42.0321 8.5828 42.2893 8.10291 42.6837 7.84583H43.6954Z" fill="black"/>
<path d="M50.2289 11.1707C49.5601 11.1707 49.08 11.3078 48.8228 11.5649V14.5985C49.543 14.7356 50.0403 14.9241 50.2975 15.164L50.1603 16.1924H46.3364L46.1992 15.164C46.3193 14.9927 46.5765 14.8384 46.9366 14.7184V10.9993C46.6279 10.8965 46.3878 10.7422 46.1992 10.5537L46.3364 9.52534C46.8337 9.42251 47.2624 9.37109 47.6568 9.37109C48.0511 9.37109 48.3769 9.38823 48.6342 9.40537V10.2452C48.8399 10.0052 49.0971 9.79957 49.4229 9.64532C49.7487 9.49107 50.0403 9.40537 50.2975 9.40537C50.5547 9.40537 50.7433 9.42251 50.8462 9.47393L50.8119 11.205C50.6404 11.1707 50.4518 11.1707 50.2289 11.1707Z" fill="black"/>
<path d="M51.6696 10.5194C51.6696 10.3823 51.6696 10.2452 51.6867 10.091C52.5098 9.64535 53.4014 9.42255 54.3617 9.42255C55.322 9.42255 55.9907 9.61107 56.4022 9.97099C56.8138 10.3309 57.0196 10.9308 57.0196 11.7706V14.5985C57.3282 14.667 57.5683 14.7356 57.7569 14.8213V15.9867C57.3111 16.1924 56.6595 16.3124 55.8021 16.3124C55.7164 16.0896 55.6306 15.7982 55.5792 15.4726C55.2019 16.0382 54.4989 16.3124 53.5043 16.3124C52.9042 16.3124 52.4069 16.141 51.9782 15.7982C51.5495 15.4554 51.3438 14.9755 51.3438 14.3928C51.3438 13.793 51.5495 13.3302 51.9439 12.9874C52.3383 12.6447 52.9213 12.4733 53.7101 12.4733H55.1676V11.8391C55.1676 11.1536 54.7904 10.7937 54.053 10.7937C53.7787 10.7937 53.5558 10.8279 53.3672 10.8794C53.35 11.2564 53.2986 11.5478 53.2128 11.7534H51.9096C51.7553 11.3935 51.6696 10.9993 51.6696 10.5194ZM54.0702 14.9413C54.516 14.9413 54.8761 14.8042 55.1505 14.5471V13.4502H54.2245C53.5901 13.4502 53.2643 13.6901 53.2643 14.1872C53.2643 14.41 53.3329 14.5985 53.47 14.7356C53.6072 14.8727 53.813 14.9413 54.0702 14.9413Z" fill="black"/>
<path d="M61.6982 6.73175C62.2126 6.61178 62.6927 6.56036 63.1557 6.56036C63.6187 6.56036 64.0131 6.5775 64.3389 6.59464V14.5985C64.6132 14.6499 64.8533 14.7185 65.0762 14.8213V15.8668C64.5446 16.1581 63.8587 16.2953 63.0528 16.2953C62.9671 16.2438 62.8813 16.1753 62.7956 16.0553C62.7099 15.9353 62.6584 15.8325 62.6584 15.7297C62.4698 15.8839 62.2126 16.021 61.9039 16.141C61.5953 16.261 61.2866 16.3124 60.978 16.3124C60.0177 16.3124 59.3147 16.0553 58.886 15.524C58.4573 14.9927 58.2344 14.1529 58.2344 12.9703C58.2344 11.6335 58.5602 10.6908 59.2289 10.1424C59.8119 9.6625 60.515 9.42256 61.3724 9.42256C61.7496 9.42256 62.1269 9.47398 62.4869 9.55967V8.23998C62.0754 8.12 61.7668 7.96575 61.5781 7.76009L61.6982 6.73175ZM61.2523 14.9413C61.7668 14.9413 62.1611 14.787 62.4869 14.4957V10.9136C62.1269 10.8279 61.7325 10.7765 61.3209 10.7765C60.9094 10.7765 60.6179 10.9651 60.4293 11.325C60.2406 11.6849 60.1549 12.2162 60.1549 12.936C60.1549 13.6559 60.2406 14.17 60.4293 14.4785C60.6007 14.787 60.8751 14.9413 61.2523 14.9413Z" fill="black"/>
<path d="M68.8511 16.2952C67.788 16.2952 66.982 16.0039 66.4505 15.4383C65.9189 14.8727 65.6445 14.05 65.6445 12.9531C65.6445 12.3019 65.7303 11.7363 65.9189 11.2564C66.1075 10.7765 66.3647 10.4166 66.6734 10.1595C67.2907 9.66248 68.028 9.4054 68.8511 9.4054C69.6742 9.4054 70.3086 9.61106 70.7545 10.0395C71.2003 10.468 71.4232 11.2221 71.4232 12.319C71.4232 12.9531 71.1146 13.2788 70.4801 13.2788H67.5822C67.6165 13.8444 67.7708 14.2386 68.0109 14.4614C68.2681 14.6842 68.6625 14.8041 69.2112 14.8041C69.5199 14.8041 69.7942 14.7699 70.0857 14.7013C70.3601 14.6328 70.5659 14.5642 70.6859 14.4956L70.8745 14.3928L71.2689 15.4554C71.2175 15.524 71.1317 15.5925 71.0288 15.6954C70.9259 15.7811 70.6687 15.9182 70.2572 16.0724C69.8457 16.2267 69.3655 16.2952 68.8511 16.2952ZM69.6913 12.0962C69.7085 11.9762 69.7256 11.822 69.7256 11.6506C69.7256 11.4792 69.657 11.2907 69.5199 11.085C69.3827 10.8793 69.1255 10.7765 68.7825 10.7765C68.4224 10.7765 68.1652 10.8793 67.9766 11.1021C67.788 11.3078 67.6679 11.6677 67.5993 12.1819L69.6913 12.0962Z" fill="black"/>
<path d="M74.7666 10.6223C74.1836 10.6223 73.8921 10.7936 73.8921 11.1364C73.8921 11.4621 74.2007 11.702 74.818 11.8734L75.864 12.1476C76.9443 12.439 77.493 13.056 77.493 14.0329C77.493 14.7013 77.253 15.2498 76.79 15.6611C76.327 16.0896 75.5725 16.2952 74.5608 16.2952C73.5491 16.2952 72.7432 16.1581 72.1773 15.8668C72.1602 15.7639 72.1602 15.6782 72.1602 15.5754C72.1602 15.0784 72.263 14.6499 72.4517 14.2557H73.5662C73.6863 14.4614 73.7549 14.6842 73.7892 14.9241C73.9606 14.9755 74.2179 15.0098 74.5437 15.0098C75.3324 15.0098 75.7097 14.787 75.7097 14.3414C75.7097 14.2043 75.6582 14.0843 75.5554 13.9815C75.4525 13.8958 75.2467 13.793 74.9209 13.7073L73.8749 13.3988C73.3262 13.2445 72.9146 13.0217 72.606 12.7303C72.2973 12.439 72.1602 11.9934 72.1602 11.4106C72.1602 10.8279 72.4002 10.348 72.8632 9.97098C73.3433 9.59392 74.0121 9.4054 74.8866 9.4054C75.7611 9.4054 76.4985 9.54251 77.1158 9.79959C77.1329 9.88528 77.1329 9.97098 77.1329 10.0738C77.1329 10.5366 77.03 10.965 76.8414 11.3592H75.744C75.6239 11.1536 75.5554 10.9479 75.5211 10.7251C75.2638 10.6565 75.0066 10.6223 74.7666 10.6223Z" fill="black"/>
<path d="M78.3688 10.5194C78.3688 10.3823 78.3688 10.2452 78.3859 10.091C79.209 9.64535 80.1007 9.42255 81.0609 9.42255C82.0212 9.42255 82.6899 9.61107 83.1015 9.97099C83.513 10.3309 83.7188 10.9308 83.7188 11.7706V14.5985C84.0274 14.667 84.2675 14.7356 84.4561 14.8213V15.9867C84.0103 16.1924 83.3587 16.3124 82.5013 16.3124C82.4156 16.0896 82.3298 15.7982 82.2784 15.4726C81.9011 16.0382 81.1981 16.3124 80.2035 16.3124C79.6034 16.3124 79.1061 16.141 78.6774 15.7982C78.2487 15.4554 78.043 14.9755 78.043 14.3928C78.043 13.793 78.2487 13.3302 78.6431 12.9874C79.0375 12.6447 79.6205 12.4733 80.4093 12.4733H81.8669V11.8391C81.8669 11.1536 81.4896 10.7937 80.7523 10.7937C80.4779 10.7937 80.255 10.8279 80.0664 10.8794C80.0492 11.2564 79.9978 11.5478 79.912 11.7534H78.6088C78.4545 11.3935 78.3688 10.9993 78.3688 10.5194ZM80.7866 14.9413C81.2324 14.9413 81.5925 14.8042 81.8669 14.5471V13.4502H80.9409C80.3064 13.4502 79.9806 13.6901 79.9806 14.1872C79.9806 14.41 80.0492 14.5985 80.1864 14.7356C80.3064 14.8727 80.5122 14.9413 80.7866 14.9413Z" fill="black"/>
<path d="M85.0723 9.52534C85.5696 9.42251 85.9983 9.37109 86.3927 9.37109C86.787 9.37109 87.1128 9.38823 87.3701 9.40537V10.0738C87.593 9.88526 87.8845 9.73101 88.2617 9.61104C88.639 9.49107 88.9819 9.42251 89.3249 9.42251C90.1994 9.42251 90.8167 9.62818 91.1596 10.0395C91.5026 10.4508 91.6912 11.1535 91.6912 12.1647V14.7184C92.0342 14.8555 92.2914 15.0098 92.4286 15.164L92.2914 16.1924H89.2048L89.0677 15.164C89.1877 14.9927 89.4449 14.8384 89.805 14.7184V12.079C89.805 11.5991 89.7193 11.2735 89.5649 11.1193C89.4106 10.9479 89.1362 10.8793 88.7247 10.8793C88.3132 10.8793 87.9188 11.0164 87.5244 11.3078V14.7356C87.8673 14.8727 88.1074 15.0269 88.2617 15.1812L88.1245 16.2095H85.0551L84.918 15.1812C85.038 15.0098 85.2952 14.8555 85.6553 14.7356V10.9993C85.3467 10.8965 85.1066 10.7422 84.918 10.5537L85.0723 9.52534Z" fill="black"/>
<path d="M95.3087 7.84583V9.52544H97.212V10.6395H95.3087V14.0158C95.3087 14.3072 95.343 14.5129 95.4287 14.6328C95.5144 14.7699 95.7031 14.8214 95.9946 14.8214C96.3032 14.8214 96.629 14.7528 96.972 14.6157L97.3664 15.6612C96.6805 16.0039 95.9774 16.1753 95.2572 16.1753C94.537 16.1753 94.0569 16.0211 93.7997 15.7126C93.5425 15.4041 93.4225 14.9585 93.4225 14.3757V10.6395H92.8223L92.668 9.83394C92.8051 9.66255 93.0967 9.49116 93.5425 9.31977C93.6454 8.5828 93.9026 8.10291 94.297 7.84583H95.3087Z" fill="black"/>
<path d="M98.1227 10.5194C98.1227 10.3823 98.1227 10.2452 98.1398 10.091C98.9629 9.64535 99.8546 9.42255 100.815 9.42255C101.775 9.42255 102.444 9.61107 102.855 9.97099C103.267 10.3309 103.473 10.9308 103.473 11.7706V14.5985C103.781 14.667 104.021 14.7356 104.21 14.8213V15.9867C103.764 16.1924 103.113 16.3124 102.255 16.3124C102.169 16.0896 102.084 15.7982 102.032 15.4726C101.655 16.0382 100.952 16.3124 99.9575 16.3124C99.3573 16.3124 98.86 16.141 98.4313 15.7982C98.0026 15.4554 97.7969 14.9755 97.7969 14.3928C97.7969 13.793 98.0026 13.3302 98.397 12.9874C98.7914 12.6447 99.3744 12.4733 100.163 12.4733H101.621V11.8391C101.621 11.1536 101.244 10.7937 100.506 10.7937C100.232 10.7937 100.009 10.8279 99.8203 10.8794C99.8031 11.2564 99.7517 11.5478 99.6659 11.7534H98.3627C98.1913 11.3935 98.1227 10.9993 98.1227 10.5194ZM100.523 14.9413C100.969 14.9413 101.329 14.8042 101.604 14.5471V13.4502H100.678C100.043 13.4502 99.7174 13.6901 99.7174 14.1872C99.7174 14.41 99.786 14.5985 99.9232 14.7356C100.043 14.8727 100.249 14.9413 100.523 14.9413Z" fill="black"/>
<path d="M29.8566 13.7245C30.2681 13.793 30.7311 13.7074 31.1084 13.6217C31.2284 13.5874 31.3484 13.5531 31.4513 13.5017C31.4685 13.4845 31.5027 13.4845 31.5199 13.4674C31.537 13.4503 31.5542 13.4331 31.5713 13.416C31.7257 13.296 31.8457 13.1246 31.8628 12.8847C31.9314 11.8906 30.7826 11.4107 29.9938 11.7535C30.0452 11.7535 30.0967 11.7535 30.1481 11.7535C30.491 11.7021 30.8683 11.7364 31.1427 11.9592C31.4513 12.2163 31.537 12.6619 31.3313 13.0047C31.0398 13.4503 30.3196 13.6902 29.668 13.6902C29.7023 13.6902 29.7366 13.6902 29.7709 13.6902C29.788 13.7074 29.8223 13.7245 29.8566 13.7245Z" fill="black"/>
<path d="M22.2421 14.9241C22.3107 14.9412 22.345 14.8384 22.2935 14.8041C22.0363 14.6841 22.0363 14.4785 22.0877 14.2385C22.1049 14.1357 22.1392 14.05 22.122 13.9472C22.0877 13.7586 21.9163 13.6215 21.7619 13.5358C21.4533 13.3816 20.9732 13.4159 20.9046 13.8101C20.8874 13.8786 20.9732 13.93 21.0246 13.8786C21.1618 13.7072 21.3676 13.6044 21.5905 13.6901C21.7277 13.7415 21.8477 13.8272 21.9163 13.9643C21.9849 14.1186 21.9334 14.2043 21.9163 14.3585C21.882 14.6156 22.002 14.8384 22.2421 14.9241Z" fill="black"/>
<path d="M27.1808 16.3296C27.4038 16.8094 27.8153 16.8437 28.3126 16.8609C29.8215 16.9123 31.4677 16.5695 32.8566 16.0553C32.9767 16.0039 32.9595 15.8325 32.8223 15.8325C31.6906 15.8497 30.5417 15.8325 29.41 15.7468C29.1528 15.7297 28.8956 15.7126 28.6384 15.6783C28.244 15.644 28.1068 15.4897 27.8324 15.2155C27.4038 14.8042 26.9922 14.3757 26.5635 13.9644C26.4435 13.8444 26.2549 14.0329 26.3578 14.1529C26.5292 14.8899 26.8722 15.6611 27.1808 16.3296ZM27.8153 15.5754C28.1754 15.9182 28.364 15.9354 28.8784 15.9696C29.9416 16.0553 31.0219 16.1067 32.085 16.0896C31.0562 16.3981 29.993 16.5866 28.9127 16.6552C28.6041 16.6723 28.3126 16.6895 28.0039 16.6552C27.438 16.6038 27.3352 16.261 27.1465 15.7811C26.9579 15.3184 26.8036 14.8385 26.5807 14.3929C26.9922 14.7699 27.4038 15.1812 27.8153 15.5754Z" fill="black"/>
<path d="M35.2228 17.1865C35.1885 16.9123 35.1542 16.6209 35.1028 16.3467C34.9999 15.8325 34.8284 15.3526 34.7427 14.8384C34.7256 14.8042 34.7256 14.7699 34.7084 14.7356C34.7256 14.3586 34.7256 13.9986 34.6741 13.6387C34.5884 12.9532 34.3655 11.6163 33.6453 11.2393C33.7824 11.0336 33.8682 10.7937 33.8853 10.588C33.8853 10.5537 33.8853 10.5194 33.8853 10.4852C34.3483 10.0738 34.5712 9.38828 34.6055 8.77128C34.6227 8.29139 34.5541 7.60583 34.1597 7.2802C34.2283 7.21164 34.2969 7.14309 34.3655 7.07453C35.2057 6.0462 35.0685 4.53797 34.074 3.66389C33.2337 2.92692 31.8962 2.54986 30.7131 2.66984C30.7131 2.60128 30.7131 2.53272 30.6616 2.44703C29.8728 1.26445 28.4324 0.767419 27.0435 0.921669C26.8377 0.938808 26.6491 0.973086 26.4433 1.0245C24.8829 0.818836 22.9281 0.75028 22.0021 1.04164C21.6935 1.14447 20.3388 1.6415 20.0816 1.84717C17.9725 3.4925 16.3778 5.77197 15.4861 8.29139C15.4861 8.30853 15.4861 8.32567 15.4861 8.34281C15.3318 8.89125 15.3832 9.79961 15.3832 10.0567C15.3832 11.1707 15.5033 12.2848 15.7776 13.3645C16.2235 15.1127 17.1494 16.9294 18.6927 17.9406C18.7784 18.1977 18.8642 18.489 18.9328 18.6433C18.6241 18.7461 18.3326 18.8318 18.0239 18.9346V18.9689C18.0411 19.0546 18.0582 19.1232 18.0754 19.2089C18.0754 19.2431 18.0925 19.2603 18.1097 19.2774C18.144 19.3117 18.2126 19.3117 18.264 19.2946C18.4355 19.2946 18.5898 19.3974 18.6755 19.5345C18.7613 19.6716 18.8127 19.843 18.8642 19.9973C18.967 20.3572 19.0528 20.6999 19.1557 21.0599C19.19 21.1627 19.2243 21.2827 19.2071 21.3855C19.19 21.5055 19.1214 21.6083 19.0185 21.6426C18.9842 21.6597 18.9156 21.6597 18.8985 21.7111C18.8985 21.7283 18.8985 21.7454 18.8985 21.7797C18.9156 21.8654 18.9328 21.9682 18.9499 22.0539C19.2243 22.0025 19.4986 21.9339 19.773 21.8825C19.8416 22.1225 19.893 22.3624 19.9616 22.5852C20.0988 22.5338 20.236 22.4995 20.3731 22.4995C20.3046 22.2424 20.236 21.9682 20.1674 21.7111C20.3046 21.694 20.4417 21.6426 20.5789 21.574C20.6475 21.814 20.7161 22.0539 20.7847 22.2939C20.7847 22.311 20.8018 22.3453 20.819 22.3453C20.8361 22.3624 20.8704 22.3453 20.8876 22.3453C20.9904 22.311 21.0762 22.2767 21.1791 22.2596C21.1276 21.9854 21.0762 21.7283 21.0076 21.4541C21.4363 21.4198 21.8307 21.0599 21.8993 20.6485C21.9679 20.2201 21.7278 19.7573 21.3334 19.5859C21.3677 19.3631 21.3677 19.1232 21.282 18.9004C21.2134 18.6776 21.059 18.489 20.8533 18.3862C20.6475 18.2834 20.4074 18.2834 20.1845 18.3348C20.1674 18.3348 20.013 18.3691 19.9959 18.3519C19.9787 18.3348 19.9616 18.3176 19.9616 18.3005C19.9273 18.2148 19.8759 18.0606 19.8244 17.9063C19.8416 17.8892 19.8416 17.872 19.8587 17.8378C19.7215 16.878 19.773 15.9182 20.2531 15.0955C20.2188 15.0441 20.1845 14.9756 20.1502 14.9241C20.5618 15.5754 21.4706 15.8154 22.1393 15.3355C21.7792 15.4726 21.3163 15.4383 20.9904 15.2841C20.6989 15.1469 20.4589 14.8727 20.3046 14.5814C20.3046 14.5642 20.2874 14.5642 20.2874 14.5471C20.2874 14.5299 20.2703 14.5128 20.2703 14.5128C20.1502 14.0672 20.2188 13.5873 20.6646 13.3474C20.6989 13.3302 20.6818 13.2959 20.6475 13.2788C20.6475 13.2788 20.6304 13.2788 20.6132 13.2788C20.6132 13.2788 20.6132 13.2788 20.5961 13.2788C20.5961 13.2788 20.5961 13.2788 20.5789 13.2788H20.5618C20.5618 13.2788 20.5618 13.2788 20.5446 13.2788C20.3731 13.3474 20.2017 13.4502 20.0988 13.6044C20.0816 13.5873 20.0473 13.5702 20.013 13.553C19.43 13.3816 18.9842 12.936 18.9156 12.3019C18.847 11.6163 19.2243 11.1536 19.6872 10.708C19.773 10.6223 19.7215 10.5023 19.6187 10.4852C19.6529 10.2281 19.7558 9.95386 19.8759 9.67964C20.0645 9.37114 20.236 9.02836 20.4246 8.71986C20.5446 8.54847 20.6475 8.37709 20.7332 8.23997C20.7504 8.22284 20.7504 8.2057 20.7675 8.18856C21.0076 7.84578 21.2648 7.52014 21.5563 7.1945C22.2594 6.38897 23.0653 5.66914 23.9398 5.05214C25.003 4.31517 26.1518 3.73245 27.3693 3.33825C27.3864 3.33825 27.4036 3.32111 27.4207 3.32111C28.2781 3.11545 29.2727 2.85836 30.1815 2.9612C30.2158 2.97834 30.2501 2.97834 30.2844 2.97834C30.353 2.99547 30.4215 2.99547 30.473 3.01261C31.0217 3.02975 31.5704 3.09831 32.102 3.25256C32.4449 3.30397 32.7708 3.40681 33.1137 3.59534C34.0054 4.05809 34.6398 5.10356 34.2626 6.11475C34.1083 6.54322 33.7824 6.85172 33.3881 7.09167C33.1308 7.31447 32.7879 7.45159 32.4449 7.55442C32.3764 7.5887 32.2906 7.60583 32.222 7.62297C30.4387 7.91433 28.7582 7.26306 27.1978 6.40611C27.1635 6.38897 27.1292 6.38897 27.1121 6.38897C27.0606 6.37183 27.0264 6.38897 27.0092 6.40611C26.9749 6.40611 26.9578 6.42325 26.9235 6.44039C26.5634 6.6632 26.2033 6.86886 25.7746 6.93742C25.4659 6.98883 25.1744 6.9717 24.8658 6.9717C24.7114 6.83459 24.4199 6.92028 24.4199 7.16022C24.4199 7.16022 24.4199 7.16022 24.4199 7.17736C24.4199 7.1945 24.4199 7.22878 24.4199 7.24592C24.5743 8.06858 24.5914 8.83984 24.1284 9.57681C24.0255 9.73106 23.9227 9.86817 23.8026 10.0053C23.6483 10.1767 23.4597 10.3309 23.2711 10.468C23.151 10.5366 23.0481 10.6051 22.9453 10.6737C22.7738 10.4852 22.448 10.6051 22.5166 10.8794C22.5852 11.1879 22.6366 11.4449 22.6023 11.702C22.568 11.9248 22.4994 12.1476 22.3965 12.3704C22.1736 12.7989 21.8821 12.9703 21.3677 13.0217C21.3334 13.0217 21.2991 13.0731 21.3334 13.1074C21.3334 13.1074 21.522 13.2959 21.7964 13.2617C21.9336 13.3302 22.0536 13.3988 22.1565 13.5016C22.2079 13.7073 22.2594 13.9129 22.3108 14.1358C22.3794 14.41 22.448 14.7013 22.4994 14.9756C21.6763 15.524 21.7449 16.7237 21.9679 17.5635C22.2765 18.7633 22.8595 19.9801 23.7169 20.8885C24.3171 21.574 26.1861 22.928 29.5813 22.8423C30.9703 22.808 32.3592 22.3624 33.4566 21.5055C33.5595 21.4198 33.8167 21.1798 34.0397 20.9742C34.2797 20.7342 34.5026 20.4429 34.657 20.1344C34.7599 19.9287 34.8456 19.7059 34.9142 19.4659C35.2057 18.7461 35.2571 17.9577 35.2228 17.1865ZM20.9904 20.1172C21.0247 20.1344 21.059 20.1858 21.0762 20.2201C21.1448 20.3229 21.1791 20.4257 21.1619 20.5457C21.1448 20.6485 21.0762 20.7514 20.9904 20.8028C20.9047 20.8713 20.8018 20.9056 20.6989 20.957C20.4932 21.0427 20.2703 21.0941 20.0473 21.1284C19.9787 20.8713 19.9102 20.5971 19.8244 20.34C19.8416 20.3229 19.8587 20.3229 19.8759 20.3058C20.0988 20.2372 20.3388 20.1858 20.5618 20.1172C20.6304 20.1001 20.7161 20.0829 20.7847 20.0658C20.8704 20.0829 20.939 20.0829 20.9904 20.1172ZM20.1159 18.9518C20.2017 18.9346 20.3046 18.9004 20.3903 18.9346C20.5275 18.9861 20.5789 19.1403 20.6132 19.2774C20.6304 19.4145 20.6304 19.5859 20.5275 19.6716C20.476 19.7059 20.4074 19.7402 20.3388 19.7573C20.1502 19.8087 19.9616 19.8601 19.773 19.9287C19.7558 19.9287 19.7558 19.9287 19.7387 19.9287C19.7215 19.9287 19.7215 19.9116 19.7215 19.8944C19.6529 19.6545 19.5672 19.3974 19.4986 19.1574C19.6872 19.0718 19.893 19.0203 20.1159 18.9518ZM19.5501 18.1291C19.5844 18.2148 19.6015 18.3176 19.6358 18.4376C19.4986 18.4719 19.43 18.489 19.2929 18.5233C19.2586 18.4033 19.2243 18.3005 19.19 18.1805C19.2071 18.1805 19.2243 18.1977 19.2586 18.1977C19.3614 18.1977 19.4643 18.1805 19.5501 18.1291ZM29.4956 2.29278C27.3864 2.58414 25.3802 3.40681 23.6655 4.65795C22.7738 5.30922 21.9507 6.08047 21.2648 6.95456C20.6475 7.72581 19.9445 8.66845 19.6358 9.62822C19.0013 9.40542 19.0185 8.71986 19.0871 8.12C19.2071 7.53728 19.4643 6.98884 19.773 6.49181C20.5103 5.29209 21.5563 4.33231 22.7052 3.52678C23.8541 2.70411 25.1401 1.88145 26.5291 1.59009C27.5579 1.38442 28.7068 1.53867 29.4956 2.20709C29.5127 2.24136 29.5127 2.2585 29.4956 2.29278ZM34.2283 8.75414C34.194 9.11406 34.074 9.40542 33.9196 9.69678C33.9196 9.47397 33.9025 9.33686 33.9025 9.33686C33.9025 9.02836 33.6281 8.78842 33.3195 8.83984C33.2852 8.83984 33.2337 8.85697 33.1994 8.85697C33.1994 8.77128 33.1823 8.66845 33.1823 8.58275C33.1651 8.37709 33.1651 8.12 33.0794 7.91434C33.0966 7.8972 33.1137 7.8972 33.1308 7.88006C33.148 7.86292 33.1823 7.84578 33.2166 7.84578C33.4738 7.79436 33.6624 7.65725 33.8853 7.52014C33.9368 7.48586 34.0225 7.48586 34.074 7.52014C34.1254 7.93147 34.2797 8.32567 34.2283 8.75414ZM24.5571 9.91958C24.6943 9.7482 24.7972 9.54253 24.8829 9.33686C24.9001 9.4397 25.0201 9.50825 25.123 9.50825C25.4831 8.66845 26.409 7.8972 27.335 7.67439C26.9406 7.55442 26.3919 7.82864 26.0832 8.01717C25.6203 8.29139 25.2602 8.66845 24.9687 9.11406C25.1573 8.58275 25.2087 7.98289 25.0887 7.45158C25.7746 7.60583 26.6663 7.2802 27.1635 6.886C28.6039 7.84578 30.9703 8.56561 32.7193 8.00003C32.7193 8.00003 32.7193 8.00003 32.7365 8.00003C32.7022 8.22284 32.7536 8.46278 32.7708 8.68559C32.7708 8.77128 32.7708 8.87411 32.7536 8.95981C31.982 9.09692 31.0389 9.25117 30.4558 9.354C30.2501 9.38828 30.1129 9.61108 30.1643 9.81675C30.1986 9.91958 30.2329 10.0567 30.2672 10.1938C29.9757 10.1595 29.5985 10.2452 29.3241 10.4166C29.3241 10.2281 29.307 10.0567 29.2898 9.91958C29.2727 9.67964 29.0498 9.50825 28.8097 9.54253C27.9866 9.67964 26.5462 9.91958 25.6031 10.0738C25.2602 10.1424 25.0544 10.4852 25.1744 10.8108C25.1744 10.8108 25.3802 11.4792 25.6546 12.0962C25.6374 12.0791 25.6374 12.0619 25.6203 12.0448C25.3459 11.5478 25.243 10.9822 24.9515 10.5023C24.9344 10.4852 24.9172 10.5023 24.9172 10.5194C24.9344 10.6223 24.9515 10.7423 24.9858 10.8622C24.9687 10.8451 24.9687 10.8108 24.9515 10.7937C24.9172 10.708 24.8829 10.5709 24.8143 10.5023C24.7972 10.4852 24.7457 10.4852 24.7286 10.5194V10.5366C24.7114 10.5366 24.6943 10.5366 24.6772 10.5537C24.3685 10.7251 24.0598 10.8965 23.734 11.0508C23.5626 11.1364 23.3739 11.2221 23.1853 11.3078C23.1853 11.205 23.1682 11.1193 23.1339 11.0165C23.7169 10.9136 24.2999 10.2795 24.5571 9.91958ZM22.7395 12.7304C22.8938 12.5247 23.031 12.2676 23.1339 11.9763C23.3911 11.8906 23.6312 11.7534 23.8712 11.6335C24.2313 11.4621 24.5914 11.2907 24.9515 11.1193C24.9515 11.1364 24.9687 11.1364 24.9687 11.1536C25.003 11.205 25.0715 11.1707 25.0887 11.1364C25.2087 11.5821 25.3973 12.0619 25.6546 12.3876C25.9975 12.8503 26.5805 13.0389 27.1464 13.0389C27.5236 13.0731 27.918 13.0217 28.2438 12.9189C28.381 12.8675 28.5182 12.7818 28.6554 12.6789C29.1183 12.2848 29.3756 11.6678 29.3584 11.0508C29.3584 10.9993 29.3584 10.9308 29.3584 10.8794C29.4784 10.7594 29.6156 10.6566 29.7871 10.588C29.9071 10.5366 30.01 10.5194 30.1129 10.5194C30.2158 10.5194 30.3015 10.5366 30.4044 10.5366C30.4387 10.6223 30.4558 10.708 30.4901 10.7765C30.6616 11.3078 31.056 11.7363 31.5704 11.942C31.7076 11.9934 31.8619 12.0277 31.982 12.0277C32.3764 12.0277 32.8222 11.8906 33.1994 11.6849C33.3023 11.6335 33.3881 11.5478 33.4738 11.4621C34.0568 12.1476 34.2111 13.1246 34.2111 13.9986C34.2111 15.0098 33.9368 15.8839 33.5424 16.7923C33.5252 16.8437 33.5081 16.8951 33.5252 16.9465C32.2049 18.1805 30.0615 18.6261 28.1924 18.3348C26.9921 18.1463 25.8603 17.6149 24.9858 16.7751C24.7457 16.5523 24.54 16.2953 24.3342 16.0382C24.2656 15.9353 24.197 15.8325 24.1284 15.7125C24.0598 15.5926 23.9913 15.4897 23.9055 15.3869C23.8884 15.3698 23.8884 15.3526 23.8712 15.3355C23.7512 15.2155 23.6312 15.0955 23.4082 15.027C23.3911 15.0098 23.3739 15.0098 23.3397 14.9927C23.2196 14.7356 22.7566 13.3988 22.6023 12.8503C22.6709 12.8332 22.7052 12.7818 22.7395 12.7304ZM22.3451 13.2445C22.328 13.1931 22.3622 13.1588 22.4137 13.1417C22.4651 13.1246 22.5166 13.1417 22.5337 13.1931C22.7223 13.793 22.9281 14.3757 23.1682 14.9584C23.031 14.9241 22.8767 14.9241 22.7223 14.9584C22.568 14.3928 22.5166 13.8101 22.3451 13.2445ZM34.897 18.7118C34.8799 18.8661 34.8456 19.0032 34.8113 19.1403C34.777 19.3117 34.7256 19.4659 34.6741 19.6202C34.6055 19.843 34.5198 20.0315 34.3655 20.2886C32.685 22.7395 28.5696 23.0137 25.9975 21.9511C24.1284 21.197 22.8081 19.5002 22.4137 17.5293C22.2937 16.9808 22.1393 16.141 22.5337 15.6611C22.568 15.6268 22.5852 15.5926 22.6195 15.5583C22.9281 15.404 23.2711 15.404 23.5626 15.524C23.7683 15.7639 23.9741 15.9868 24.1799 16.2438C24.197 16.261 24.197 16.2781 24.2142 16.2953C24.2656 16.3638 24.3342 16.4495 24.3856 16.5181C24.7629 16.9465 25.1744 17.3407 25.6546 17.6492C26.5977 18.2834 27.7294 18.6261 28.8783 18.6776C30.4387 18.7633 32.0163 18.3862 33.2509 17.4778C33.2509 17.4607 33.268 17.4607 33.2852 17.4436C33.5595 17.2379 33.8167 17.0151 34.0568 16.7751C34.194 16.638 34.2969 16.4838 34.4169 16.3295C34.4855 16.2267 34.5712 16.1239 34.6398 16.0039C34.5884 16.0724 34.5198 16.141 34.4512 16.2096L34.4341 16.2267C34.5369 15.9525 34.6055 15.6611 34.657 15.3698C34.8284 16.1239 35.0342 16.8608 35.0342 17.6492C34.9999 18.0263 34.9656 18.3691 34.897 18.7118Z" fill="black"/>
</g>
<defs>
<clipPath id="clip0_5671_45644">
<rect width="118" height="22" fill="white" transform="translate(0.5625 0.846191)"/>
</clipPath>
</defs>
</svg>
