<svg width="119" height="23" viewBox="0 0 119 23" fill="none" xmlns="http://www.w3.org/2000/svg">
<g clip-path="url(#clip0_5671_45671)">
<path d="M23.1182 19.005C21.9284 18.6927 21.0896 18.1364 20.6898 17.3946C20.4557 16.9651 20.5045 16.9261 21.4797 16.7601L22.1917 16.643L22.5818 16.9456C23.0694 17.3458 23.7228 17.541 24.5518 17.541C25.41 17.541 26.0439 17.3165 26.5511 16.8187C27.029 16.36 27.185 15.9305 27.185 15.0716V14.4957L26.7364 14.8959C25.5368 15.95 23.5083 16.0574 22.0064 15.1399C20.5728 14.2712 19.773 12.7193 19.8998 11.0015C20.0266 9.13723 21.2652 7.55604 22.9914 7.01922C23.6936 6.80449 24.9517 6.81425 25.5856 7.0485C25.8489 7.1461 26.317 7.40964 26.6193 7.64389L27.1752 8.06358L27.2045 7.76101C27.2338 7.4682 27.263 7.43892 27.9164 7.27299C28.2968 7.17538 28.6771 7.0973 28.7747 7.0973C28.9405 7.0973 28.9502 7.31203 28.9209 11.6164C28.8917 16.0964 28.8917 16.1257 28.6576 16.7016C28.3358 17.5117 27.341 18.5073 26.5803 18.7903C25.4198 19.2198 24.23 19.2979 23.1182 19.005ZM27.1947 11.3236C27.1947 9.77166 25.9464 8.52233 24.3958 8.52233C22.8549 8.52233 21.6065 9.77166 21.6065 11.3236C21.6065 12.8657 22.8549 14.1151 24.3958 14.1151C25.9464 14.1151 27.1947 12.8657 27.1947 11.3236Z" fill="black"/>
<path d="M37.3589 15.7353C35.974 15.3546 34.95 14.4762 34.4038 13.1878C34.0918 12.4753 34.0723 12.3386 34.0625 11.3919C34.0625 10.1914 34.2185 9.64477 34.8134 8.75657C35.5059 7.7122 36.6372 7.02897 37.9733 6.85328C38.9388 6.7264 40.2554 7.13633 40.9186 7.78052C41.0941 7.94645 41.2501 8.07334 41.2794 8.07334C41.3087 8.07334 41.3282 7.92693 41.3282 7.74148V7.41939L42.1376 7.25346C42.5765 7.16562 42.9666 7.09729 43.0154 7.09729C43.0544 7.09729 43.0739 9.0201 43.0641 11.3724L43.0349 15.6377H42.1864H41.3282V15.1204V14.6031L40.9186 14.9349C39.875 15.7841 38.5974 16.0671 37.3589 15.7353ZM41.3379 11.3528C41.3379 9.80093 40.0798 8.5516 38.5389 8.5516C36.9883 8.5516 35.7399 9.80093 35.7399 11.3528C35.7399 12.895 36.9883 14.1541 38.5389 14.1541C40.0798 14.1541 41.3379 12.895 41.3379 11.3528Z" fill="black"/>
<path d="M46.8321 15.7449C45.8178 15.4912 45.0181 14.9251 44.628 14.1735C44.4232 13.7831 44.4134 13.7148 44.5402 13.6367C44.6182 13.5879 44.9596 13.3927 45.2912 13.1975L45.8958 12.8558L46.0616 13.2072C46.4029 13.9295 47.3684 14.3394 48.3535 14.1735C48.8898 14.0857 49.3287 13.6855 49.3385 13.2755C49.358 12.7094 48.9776 12.4654 47.466 12.0262C46.1981 11.6651 45.4765 11.2747 45.0961 10.7183C44.8133 10.3084 44.784 10.2108 44.784 9.48849C44.784 8.80526 44.823 8.6491 45.0571 8.23916C46.1396 6.40419 49.3482 6.39443 50.6453 8.21963C50.8209 8.47341 50.9476 8.71742 50.9281 8.76622C50.8989 8.80526 50.5868 9.00047 50.2357 9.19568L49.6018 9.55682L49.2312 9.15664C48.6363 8.52221 48.0414 8.34652 47.2514 8.58077C46.8028 8.71742 46.4907 9.06879 46.4907 9.42993C46.4907 9.90819 46.9393 10.2108 48.2072 10.5817C49.9724 11.099 50.5868 11.4796 50.9184 12.2897C51.1329 12.7973 51.1134 13.7831 50.8891 14.2809C50.343 15.4912 48.4997 16.1549 46.8321 15.7449Z" fill="black"/>
<path d="M53.8574 15.7451C52.8333 15.423 52.0044 14.7886 51.6143 14.037C51.468 13.7344 51.468 13.7344 51.7801 13.5392C51.9556 13.4319 52.2872 13.2464 52.5115 13.1293L52.9309 12.9048L53.0967 13.1488C53.7306 14.0565 54.501 14.3689 55.5543 14.1639C56.0029 14.0663 56.4418 13.6271 56.4418 13.2562C56.4418 12.6901 56.1687 12.5241 54.1109 11.88C52.4335 11.3431 51.8581 10.738 51.8581 9.48865C51.8581 8.38572 52.2384 7.77081 53.2234 7.25351C54.5108 6.58004 56.198 6.75572 57.2415 7.6732C57.6414 8.02458 58.0997 8.69805 58.0022 8.78589C57.8559 8.90302 56.7051 9.53745 56.6271 9.53745C56.5783 9.53745 56.5393 9.49841 56.5393 9.44961C56.5393 9.2544 55.8469 8.68829 55.486 8.58093C54.9399 8.415 54.6083 8.43452 54.1402 8.66877C53.6331 8.91278 53.477 9.2544 53.6623 9.71314C53.8281 10.0938 54.0817 10.2207 55.4178 10.6111C56.5686 10.943 56.8904 11.0894 57.3975 11.47C58.324 12.1728 58.4508 13.8613 57.6511 14.7983C56.9099 15.6572 55.0472 16.1257 53.8574 15.7451Z" fill="black"/>
<path d="M77.5094 11.3528C77.5094 13.8417 75.5004 15.8621 73.0135 15.8621C70.5266 15.8621 68.5078 13.8417 68.5078 11.3528C68.5078 8.86386 70.5266 6.85321 73.0135 6.85321C75.5004 6.85321 77.5094 8.86386 77.5094 11.3528ZM75.793 11.3528C75.793 9.81063 74.5544 8.57105 73.0135 8.57105C71.4823 8.57105 70.234 9.81063 70.234 11.3528C70.234 12.8852 71.4823 14.1345 73.0135 14.1345C74.5544 14.1345 75.793 12.8852 75.793 11.3528Z" fill="black"/>
<path d="M81.8279 15.7351C80.9794 15.5009 80.4235 15.1885 79.8384 14.6029C78.6973 13.4609 78.2194 11.7528 78.629 10.2302C79.0777 8.51238 80.2967 7.31184 81.9547 6.94095C83.164 6.67741 84.5098 6.99951 85.4071 7.78034L85.7484 8.07316L85.7972 6.10155L85.846 4.12994L86.4799 4.00305C86.831 3.93473 87.2113 3.85665 87.3381 3.82737L87.5527 3.77856L87.5331 9.70315L87.5039 15.6277L86.6554 15.6375L85.7972 15.657V15.13V14.6029L85.3876 14.9347C84.3441 15.7839 83.0665 16.067 81.8279 15.7351ZM85.8069 11.3527C85.8069 9.81052 84.5489 8.56118 83.008 8.56118C81.467 8.56118 80.209 9.81052 80.209 11.3527C80.209 12.9046 81.467 14.1539 83.008 14.1539C84.5489 14.1539 85.8069 12.9046 85.8069 11.3527Z" fill="black"/>
<path d="M92.3829 15.7253C91.632 15.5399 90.6274 14.9836 90.1788 14.5151C89.3108 13.5878 88.9793 12.5922 89.0378 11.0599C89.067 10.1424 89.0963 10.0057 89.4279 9.3225C89.896 8.37574 90.7932 7.50706 91.6027 7.20449C92.2854 6.95071 93.5142 6.76526 93.9823 6.85311C96.2742 7.25329 97.7663 9.06873 97.6785 11.3624L97.6493 12.1237L94.2164 12.1725L90.7737 12.2214L91.0078 12.7094C91.6807 14.1637 93.719 14.6615 95.1721 13.7245L95.6305 13.4316L96.4692 13.6073C96.9471 13.7049 97.308 13.8318 97.308 13.8904C97.308 13.9587 97.1031 14.232 96.8593 14.5151C95.8646 15.618 94.0116 16.1158 92.3829 15.7253ZM95.9426 10.484C95.9426 10.1912 95.416 9.3225 95.0649 9.04921C94.509 8.60999 93.9531 8.4343 93.2801 8.50262C92.0318 8.62951 91.1736 9.29322 90.8322 10.3961L90.764 10.6109H93.3484C95.416 10.6109 95.9426 10.5816 95.9426 10.484Z" fill="black"/>
<path d="M30.8826 15.5791C30.8339 15.5498 30.8046 13.1 30.8144 9.5862L30.8436 3.64209L31.5751 3.4664C31.9749 3.37855 32.365 3.30047 32.4333 3.29071C32.5211 3.29071 32.5503 4.59861 32.5503 9.49835V15.706L31.7604 15.6669C31.3313 15.6474 30.9314 15.6084 30.8826 15.5791Z" fill="black"/>
<path d="M60.4248 15.618C59.6933 15.579 59.6641 15.5692 59.6641 15.3447C59.6641 15.2081 59.6641 13.4317 59.6641 11.3918C59.6641 9.35183 59.6641 7.62424 59.6641 7.54615C59.6641 7.45831 59.8786 7.37047 60.2785 7.30214C60.6101 7.23382 60.9807 7.15573 61.1074 7.12645C61.3025 7.07765 61.322 7.10693 61.322 7.48759V7.89753L61.7024 7.59496C63.1945 6.40418 65.5936 6.67747 66.5981 8.13178C67.2028 9.01998 67.2126 9.0883 67.2223 12.5045V15.6278L66.3738 15.6376L65.5156 15.6571V12.8363C65.5156 10.1717 65.5059 9.98626 65.3108 9.52752C65.0085 8.82477 64.5208 8.56124 63.5553 8.56124C62.9117 8.56124 62.7654 8.60028 62.3558 8.85405C62.0047 9.07854 61.8389 9.28351 61.6341 9.71297C61.3708 10.2693 61.3708 10.2693 61.3415 12.9827C61.322 14.4663 61.2732 15.6766 61.244 15.6668C61.205 15.6571 60.8344 15.6278 60.4248 15.618Z" fill="black"/>
</g>
<defs>
<clipPath id="clip0_5671_45671">
<rect width="118" height="22" fill="white" transform="translate(0.1875 0.846191)"/>
</clipPath>
</defs>
</svg>
