<svg width="119" height="23" viewBox="0 0 119 23" fill="none" xmlns="http://www.w3.org/2000/svg">
<g clip-path="url(#clip0_5671_45719)">
<path d="M43.1785 17.0017C42.0875 16.7936 41.1177 16.0708 40.71 15.1618C40.3794 14.4389 40.3904 13.3 40.732 12.61C41.3491 11.3396 42.6165 10.7811 45.9556 10.332C48.5233 9.98157 48.347 10.0254 48.347 9.75158C48.347 9.37922 48.0384 9.01781 47.5315 8.78782C46.6829 8.40451 44.9307 8.56879 44.3577 9.09447C44.2475 9.19304 44.1042 9.46684 44.0271 9.69682L43.9058 10.1239L42.2969 10.0911L40.6879 10.0582L40.721 9.62016C40.9634 6.95888 44.3026 5.17373 47.7299 5.89655C49.9119 6.35653 51.3996 7.7474 51.7633 9.66397C51.8184 9.98157 51.8735 11.7448 51.8735 13.5738V16.9031H50.2204H48.5674V16.2788C48.5674 15.8627 48.6886 15.326 48.898 14.7127C49.0743 14.198 49.1845 13.749 49.1294 13.6942C49.0743 13.6395 48.898 13.6176 48.7217 13.6395C48.4462 13.6723 48.3801 13.7599 48.1266 14.4061C47.7519 15.3918 47.267 16.0489 46.5617 16.5088C45.7132 17.0783 44.4679 17.2536 43.1785 17.0017ZM46.727 13.9023C47.6197 13.5738 48.347 12.8181 48.347 12.1938C48.347 11.9529 48.325 11.9529 47.6637 12.0186C46.0878 12.1938 44.556 12.5114 44.2805 12.7195C43.8618 13.0262 43.8397 13.5299 44.2254 13.8256C44.4679 14.0228 44.6662 14.0556 45.4156 14.0556C45.9005 14.0447 46.4956 13.979 46.727 13.9023Z" fill="#7F37E7"/>
<path d="M79.0942 16.958C78.0142 16.717 76.8571 16.1037 76.1738 15.4028C74.0579 13.2672 74.0689 9.19314 76.1958 7.26563C78.5542 5.11908 82.808 5.26145 84.9239 7.55037C85.8606 8.56889 86.3234 9.98167 86.2353 11.5478L86.2022 12.1392L82.1247 12.172C79.8876 12.183 77.9921 12.2158 77.915 12.2487C77.6615 12.3363 78.0803 13.2563 78.5652 13.6615C79.0942 14.1105 79.6893 14.2748 80.8574 14.2748C81.9043 14.2748 82.6537 13.9681 82.9843 13.4096L83.1827 13.0701H84.8908C86.8634 13.0701 86.8083 13.0263 86.2463 14.1543C85.6402 15.359 84.6153 16.2132 83.0725 16.7718C82.1357 17.1113 80.1852 17.1989 79.0942 16.958ZM82.9512 10.0036C82.9512 9.59836 82.6537 9.18219 82.1578 8.9084C81.4635 8.51413 79.8546 8.45937 78.9619 8.79888C78.3007 9.03982 77.8819 9.51074 77.8819 9.99262C77.8819 10.2226 77.904 10.2226 80.4166 10.2226C82.8961 10.2226 82.9512 10.2226 82.9512 10.0036Z" fill="#7F37E7"/>
<path d="M21.0074 16.8592C20.9854 16.8373 20.9743 14.3732 20.9964 11.3833L21.0184 5.95124H22.7266H24.4347V6.47693C24.4347 6.77262 24.2914 7.42973 24.1041 7.96637C23.7625 8.99584 23.7735 9.0725 24.3796 8.99584C24.6331 8.96298 24.6992 8.86441 24.9196 8.24016C25.4486 6.65215 26.3853 5.89648 27.9722 5.76506C29.6693 5.62269 30.8154 6.49883 31.3775 8.36063C31.5317 8.87537 31.5979 8.96298 31.8403 8.99584C32.0938 9.02869 32.1489 8.96298 32.3583 8.41539C32.7329 7.42973 32.9864 7.00261 33.4603 6.57549C34.1325 5.97314 34.5954 5.80887 35.6753 5.79792C36.4908 5.78696 36.6892 5.83077 37.2402 6.09361C38.21 6.56454 38.8051 7.37497 39.1467 8.68919C39.301 9.29154 39.3341 9.9815 39.323 13.1247V16.8483H37.648H35.9619L35.9949 13.8365C36.017 10.8029 35.9619 10.1348 35.6092 9.3901C35.3998 8.95203 35.0472 8.7987 34.2868 8.7987C33.5154 8.7987 33.0305 9.00679 32.6668 9.47772C32.0387 10.2881 31.9174 11.1205 31.8954 14.8222L31.8734 16.8483H30.1652H28.4571L28.402 13.2889C28.3469 9.42296 28.3138 9.25868 27.7298 8.95203C27.3 8.73299 26.231 8.7549 25.7571 8.99584C25.5477 9.0944 25.2392 9.37915 25.0739 9.62009C24.5669 10.3429 24.4347 11.2519 24.4347 14.2527V16.903H22.7486C21.8119 16.903 21.0294 16.8811 21.0074 16.8592Z" fill="#7F37E7"/>
<path d="M52.3603 16.8046C52.3933 16.7498 53.3411 15.6108 54.4651 14.2638C56.2945 12.0625 56.5039 11.7777 56.5039 11.4163C56.5039 11.0549 56.3055 10.7701 54.4651 8.57978C53.3411 7.24367 52.4264 6.10468 52.4264 6.04992C52.4264 5.99516 53.319 5.95135 54.399 5.95135H56.3827L57.5177 7.49556C58.6308 9.02881 58.6418 9.03976 58.8181 8.78787C59.1377 8.28409 59.9753 7.4627 60.4161 7.21081C61.2536 6.72893 62.4107 6.45514 63.6119 6.45514C64.8682 6.44419 65.6397 6.60846 66.5874 7.05749C67.2817 7.38604 67.9649 7.93363 67.9649 8.16362C67.9649 8.29504 67.0833 9.79543 66.6094 10.4744L66.389 10.792L66.1245 10.3102C65.7939 9.71877 65.1548 9.29165 64.3723 9.12737C63.4136 8.93024 62.1462 9.24784 61.6062 9.81734C61.2316 10.2226 60.7687 10.8578 58.6528 13.8914C57.8153 15.0961 56.9888 16.2679 56.8124 16.4979L56.4818 16.9031H54.399C53.2198 16.9031 52.3272 16.8593 52.3603 16.8046Z" fill="#7F37E7"/>
<path d="M69.8293 15.3478C68.7052 13.7927 68.7052 13.7927 68.5289 14.0665C68.1652 14.6141 67.2946 15.4573 66.7877 15.7202C65.84 16.2349 65.0465 16.3992 63.669 16.3992C62.3466 16.3992 61.5311 16.2349 60.6605 15.7969C60.1535 15.534 59.3711 14.844 59.3711 14.6579C59.3711 14.5045 60.8147 12.0842 60.9139 12.0842C60.947 12.0842 61.0792 12.2923 61.2225 12.5551C61.8506 13.727 63.7241 14.176 65.0686 13.486C65.6857 13.1794 65.7518 13.0918 68.5289 9.16007C69.686 7.51731 70.6999 6.12643 70.777 6.06072C70.8652 5.98406 71.6476 5.96215 72.9701 5.9731L75.0308 6.00596L72.926 8.52487C70.5236 11.4052 70.5346 11.3833 71.2509 12.2923C71.4713 12.588 72.3309 13.6284 73.1464 14.6141C73.9619 15.5997 74.7223 16.5197 74.8325 16.6511L75.0308 16.903H73.0031H70.9644L69.8293 15.3478Z" fill="#7F37E7"/>
<path d="M87.4363 16.8374C87.3371 16.7279 87.3481 6.24704 87.4473 6.08276C87.5245 5.98419 87.9432 5.95134 89.1885 5.97324L90.8305 6.0061L90.8636 6.54273C90.8856 6.91509 90.8085 7.33126 90.6211 7.87885C90.2354 8.95213 90.2354 9.03974 90.7424 8.99593C91.1171 8.96308 91.1501 8.93022 91.3264 8.41549C91.7672 7.12318 92.2962 6.47702 93.255 6.03895C94.0264 5.68849 95.4811 5.67754 96.1202 6.028C96.7704 6.36751 97.4317 7.13413 97.7072 7.85695C98.1149 8.95213 98.1259 8.93022 96.4839 10.2006L95.0182 11.3287L94.897 10.5292C94.8309 10.0911 94.7207 9.59828 94.6546 9.43401C94.4893 9.02879 93.9823 8.7988 93.255 8.7988C92.4836 8.7988 91.8775 9.0945 91.5468 9.62019C91.062 10.3978 90.9738 10.9892 90.9187 14.0338L90.8526 16.9031H89.1775C88.2628 16.9031 87.4694 16.8703 87.4363 16.8374Z" fill="#7F37E7"/>
</g>
<defs>
<clipPath id="clip0_5671_45719">
<rect width="118" height="22" fill="white" transform="translate(0.0625 0.846191)"/>
</clipPath>
</defs>
</svg>
