<svg width="111" height="23" viewBox="0 0 111 23" fill="none" xmlns="http://www.w3.org/2000/svg">
<g clip-path="url(#clip0_5671_45688)">
<path d="M14.4577 15.6568L11.9225 16.7656V16.6537C11.4357 16.7758 10.8881 16.847 10.3811 16.8775C7.98782 16.8572 6.10162 15.5958 6.0712 14.1107V13.5614C6.85204 14.7007 8.4543 15.4737 10.3811 15.4432C11.0301 15.4737 11.6994 15.372 12.2571 15.2194L12.4802 14.6701C11.8211 14.8736 11.0909 15.0058 10.3811 15.0058C7.98782 15.0058 6.10162 13.7547 6.0712 12.239V11.7914C6.85204 12.8493 8.4543 13.6122 10.3811 13.5614C11.2532 13.6122 12.0949 13.4291 12.8149 13.1138L12.9264 12.5645C12.2267 12.9307 11.3242 13.1443 10.3912 13.1138C7.99796 13.1443 6.11176 11.8932 6.08134 10.347V9.89941C6.86218 10.9777 8.46444 11.7507 10.3912 11.7813C11.4864 11.7507 12.5208 11.4558 13.3726 11.0082L13.4842 10.347C12.7135 10.9166 11.5878 11.293 10.3912 11.3439C7.99796 11.293 6.11176 10.0317 6.08134 8.46514C6.10162 6.96984 7.99796 5.71866 10.3912 5.69832C11.8109 5.71866 13.1394 6.2171 13.9202 7.03087L14.0013 7.16311H14.5591L14.478 7.03087C13.6971 5.9628 12.1253 5.26092 10.3912 5.26092C7.7343 5.25075 5.625 6.70536 5.625 8.45497V8.56686V14.2124C5.71627 15.9213 7.77486 17.3149 10.3709 17.3149C12.0847 17.3251 13.6363 16.6435 14.4577 15.6568Z" fill="black"/>
<path d="M13.4218 19.5527L14.3142 15.7483L11.7486 16.8672L13.3103 10.2757H10.3086L11.0894 7.03076H20.6725L19.8917 10.2757H16.7683L16.099 12.066L19.557 10.6114L13.4218 19.5527ZM14.9835 14.9752L14.5373 17.2131L18.2185 11.6286L15.2066 12.9713L16.5452 9.83827H19.557L20.1148 7.48851H11.4139L10.8562 9.83827H13.868L12.4179 16.0941L14.9835 14.9752Z" fill="#FABF2C"/>
<path d="M29.4291 13.3432V13.3628C29.4487 14.0501 29.2334 14.5802 28.8027 14.9729C28.3721 15.3657 27.7848 15.562 27.0214 15.562C26.258 15.562 25.6315 15.3068 25.1617 14.8159C24.6919 14.325 24.457 13.677 24.457 12.8916V11.6153C24.457 10.8298 24.6919 10.1819 25.1422 9.69096C25.612 9.20007 26.2188 8.94481 26.9627 8.94481C27.7457 8.94481 28.3525 9.14116 28.8027 9.51424C29.253 9.90695 29.4683 10.4371 29.4487 11.1244V11.144H28.1959C28.1959 10.7316 28.098 10.4175 27.9023 10.2211C27.7065 10.0248 27.3933 9.92659 26.9822 9.92659C26.5907 9.92659 26.2971 10.0837 26.0818 10.3978C25.8664 10.712 25.749 11.1047 25.749 11.5956V12.8916C25.749 13.3825 25.8664 13.7948 26.0818 14.109C26.3167 14.4231 26.6299 14.5802 27.041 14.5802C27.4325 14.5802 27.7065 14.4821 27.9023 14.2857C28.098 14.0893 28.1959 13.7752 28.1959 13.3628H29.4291V13.3432ZM36.5154 12.8327C36.5154 13.6181 36.2609 14.2857 35.7715 14.7962C35.2821 15.3068 34.6361 15.562 33.8336 15.562C33.031 15.562 32.4046 15.3068 31.8956 14.7962C31.4062 14.2857 31.1518 13.6181 31.1518 12.8327V11.6742C31.1518 10.8887 31.4062 10.2408 31.8956 9.7106C32.385 9.20007 33.031 8.92517 33.814 8.92517C34.6166 8.92517 35.2626 9.18043 35.7519 9.7106C36.2609 10.2211 36.4958 10.8887 36.4958 11.6742V12.8327H36.5154ZM35.2234 11.6545C35.2234 11.144 35.1059 10.7513 34.8515 10.4175C34.597 10.1033 34.2642 9.92659 33.814 9.92659C33.3833 9.92659 33.031 10.0837 32.7961 10.4175C32.5612 10.7317 32.4241 11.144 32.4241 11.6545V12.813C32.4241 13.3236 32.5416 13.7359 32.7961 14.0697C33.031 14.3839 33.3833 14.5606 33.814 14.5606C34.2642 14.5606 34.597 14.4035 34.8515 14.0697C35.1059 13.7555 35.2234 13.3236 35.2234 12.813V11.6545ZM39.8432 15.4638H38.5512V9.02335H39.8432V15.4638ZM47.2622 15.4638H45.9702L43.3863 11.1244H43.3667V15.4638H42.0747V9.02335H43.3667L45.9506 13.3628H45.9702V9.02335H47.2622V15.4638ZM53.7416 10.0248H51.9015V15.4638H50.6095V10.0248H48.8086V9.02335H53.7416V10.0248ZM59.066 12.6363H56.6778V14.4821H59.5163V15.4638H55.4055V9.02335H59.5163V10.0248H56.6974V11.6349H59.0856V12.6363H59.066ZM62.6483 14.4821H65.5258V15.4638H61.3563V9.02335H62.6483V14.4821ZM71.0069 12.6363H68.6187V14.4821H71.4571V15.4638H67.3463V9.02335H71.4571V10.0248H68.6383V11.6349H71.0265V12.6363H71.0069ZM78.2302 14.5999C78.0344 14.8551 77.7408 15.0908 77.3297 15.2871C76.9382 15.4835 76.4292 15.5817 75.8028 15.5817C75.0198 15.5817 74.3934 15.346 73.904 14.8551C73.4147 14.3642 73.1602 13.7359 73.1602 12.9505V11.5956C73.1602 10.8102 73.3951 10.1819 73.8845 9.69096C74.3543 9.20007 74.9807 8.94481 75.7245 8.94481C76.5075 8.94481 77.1144 9.14116 77.5254 9.51424C77.9365 9.88732 78.1519 10.3782 78.1323 11.0066V11.0262H76.9186C76.9186 10.6924 76.8207 10.4175 76.625 10.2211C76.4292 10.0248 76.1356 9.92659 75.7637 9.92659C75.3722 9.92659 75.059 10.0837 74.8045 10.3782C74.5696 10.6924 74.4521 11.0851 74.4521 11.5563V12.9112C74.4521 13.4021 74.5696 13.7948 74.8241 14.109C75.0785 14.4231 75.4113 14.5606 75.8224 14.5606C76.1356 14.5606 76.3705 14.5213 76.5467 14.4624C76.7229 14.4035 76.8599 14.325 76.9578 14.2268V12.9701H75.7245V12.0669H78.2497V14.5999H78.2302ZM81.558 12.8916V15.4638H80.266V9.02335H82.4976C83.2218 9.02335 83.8091 9.20007 84.2202 9.53388C84.6313 9.86768 84.8466 10.3389 84.8466 10.928C84.8466 11.2618 84.7683 11.5367 84.5921 11.792C84.4159 12.0276 84.1614 12.224 83.8287 12.381C84.2006 12.4989 84.4747 12.6756 84.6508 12.9505C84.8074 13.2057 84.9053 13.5395 84.9053 13.9323V14.4035C84.9053 14.5802 84.9249 14.7766 84.9836 14.9729C85.0228 15.1693 85.1206 15.3068 85.2381 15.4049V15.5031H83.907C83.7895 15.4049 83.7112 15.2478 83.6721 15.0319C83.6329 14.8159 83.6133 14.5999 83.6133 14.4035V13.9519C83.6133 13.6377 83.535 13.3825 83.3589 13.2057C83.1827 13.029 82.9282 12.9308 82.615 12.9308H81.558V12.8916ZM81.558 11.9098H82.478C82.8303 11.9098 83.1044 11.8312 83.2806 11.6742C83.4567 11.5171 83.5546 11.3011 83.5546 10.9869C83.5546 10.6924 83.4567 10.4567 83.2806 10.28C83.1044 10.1033 82.8499 10.0248 82.4976 10.0248H81.558V11.9098ZM90.3081 14.0893H88.2331L87.8024 15.4835H86.4518L88.6246 9.04299H89.9361L92.0894 15.4835H90.7387L90.3081 14.0893ZM88.5463 13.0683H89.9949L89.2902 10.7906H89.2706L88.5463 13.0683ZM94.9474 13.1272V15.4638H93.6554V9.02335H96.1219C96.8658 9.02335 97.4335 9.2197 97.8641 9.59278C98.2948 9.96586 98.4905 10.4764 98.4905 11.0851C98.4905 11.6938 98.2752 12.2043 97.8641 12.5774C97.4335 12.9505 96.8658 13.1468 96.1219 13.1468H94.9474V13.1272ZM94.9474 12.1454H96.1219C96.4743 12.1454 96.7483 12.0472 96.9441 11.8509C97.1202 11.6545 97.2181 11.3993 97.2181 11.1047C97.2181 10.7906 97.1202 10.5353 96.9441 10.3389C96.7679 10.1426 96.4938 10.0444 96.1219 10.0444H94.9474V12.1454ZM105.557 15.4638H104.265V12.7934H101.642V15.4638H100.35V9.02335H101.642V11.792H104.265V9.02335H105.557V15.4638Z" fill="black"/>
</g>
<defs>
<clipPath id="clip0_5671_45688">
<rect width="100" height="14.4444" fill="white" transform="translate(5.625 5.1795)"/>
</clipPath>
</defs>
</svg>
