<svg width="119" height="23" viewBox="0 0 119 23" fill="none" xmlns="http://www.w3.org/2000/svg">
<g clip-path="url(#clip0_5671_45623)">
<g clip-path="url(#clip1_5671_45623)">
<path d="M7.36102 16.1113C7.31561 16.0829 7.20777 16.0544 7.11695 16.0544C7.03181 16.0544 6.91829 16.0317 6.86153 16.0033C6.81045 15.9748 6.69125 15.918 6.59476 15.8782C5.7831 15.5143 5.10199 14.7296 4.81251 13.8312C4.73305 13.5811 4.72737 12.1539 4.80684 12.1027C4.83522 12.0857 4.86359 12.0231 4.86359 11.9606C4.86359 11.7502 5.312 10.994 5.62985 10.6756C5.84554 10.4595 6.47557 10.0274 6.57774 10.0274C6.62314 10.0274 6.6799 10.0046 6.71396 9.98188C6.941 9.77719 8.35999 9.68621 8.78001 9.85111C9.21706 10.016 9.34193 10.0729 9.58599 10.215C9.87547 10.3799 10.3125 10.7609 10.3125 10.8461C10.3125 10.9257 9.45545 11.79 9.37031 11.79C9.34193 11.79 9.22841 11.699 9.12056 11.591C8.79703 11.2555 8.49053 11.1418 7.88888 11.1418C7.54832 11.1418 7.33831 11.1646 7.2929 11.21C7.25885 11.2442 7.17939 11.2783 7.1283 11.2783C7.00343 11.2783 6.33934 11.8867 6.33934 11.9947C6.33934 12.0402 6.31664 12.0743 6.28258 12.0743C6.2542 12.0743 6.22583 12.1198 6.22583 12.1766C6.22583 12.2335 6.19745 12.3074 6.16339 12.3415C6.12366 12.3813 6.09528 12.6201 6.09528 12.9215C6.09528 13.3593 6.11231 13.4787 6.2315 13.7062C6.56638 14.3714 7.25317 14.8035 7.97402 14.8035C8.13295 14.8035 8.28052 14.7808 8.29755 14.7467C8.31458 14.7182 8.38269 14.6898 8.43945 14.6898C8.58702 14.6898 8.93893 14.4908 9.14894 14.2861C9.24544 14.1951 9.36463 14.1212 9.41004 14.1212C9.51788 14.1212 10.3125 14.9343 10.3125 15.0367C10.3068 15.0821 10.1763 15.2186 10.023 15.3437C9.86411 15.4688 9.70519 15.5996 9.67113 15.628C9.56329 15.719 9.11489 15.9293 8.86515 15.9976C8.74028 16.0374 8.55864 16.0886 8.46215 16.117C8.23511 16.1852 7.46886 16.1795 7.36102 16.1113Z" fill="#232368"/>
<path d="M14.861 16.0944C14.8156 16.0319 14.8043 15.196 14.8099 12.8932L14.827 9.77167H16.5298C18.2098 9.77167 18.2382 9.77735 18.5163 9.90813C19.0045 10.1469 19.2769 10.363 19.4983 10.6985C19.748 11.0681 19.8161 11.2386 19.907 11.6708C20.0489 12.4042 19.6005 13.4505 18.9647 13.8371C18.8626 13.9053 18.7718 13.9792 18.7718 14.002C18.7718 14.019 18.8683 14.1669 18.9874 14.3261C19.101 14.4853 19.3394 14.8151 19.5096 15.0596C19.6799 15.3041 19.907 15.6168 20.0091 15.7589C20.2986 16.1399 20.2589 16.1683 19.4131 16.1683C18.9307 16.1626 18.6582 16.1399 18.5958 16.0944C18.5504 16.0546 18.4028 15.8726 18.2723 15.685C17.8182 15.0311 17.6763 14.8321 17.4493 14.5308L17.2222 14.2294L16.6773 14.2465L16.1324 14.2635L16.1041 15.2017L16.0757 16.1399L15.5024 16.1569C15.0654 16.1683 14.9121 16.1513 14.861 16.0944ZM18.2325 12.6829C18.4369 12.518 18.6015 12.2109 18.6015 11.9892C18.6015 11.7674 18.4426 11.4604 18.2496 11.3125C17.9714 11.1022 17.6309 11.0453 16.8419 11.0624L16.1324 11.0794L16.1154 11.9323C16.1097 12.3986 16.1097 12.8079 16.1211 12.8421C16.1381 12.8819 16.4616 12.8875 17.0917 12.8705C18.0225 12.8421 18.0396 12.8421 18.2325 12.6829Z" fill="#232368"/>
<path d="M26.2166 16.1C26.1655 16.0488 26.1485 15.702 26.1485 14.8093C26.1485 13.5925 26.1485 13.5812 26.0009 13.3253C25.8363 13.0467 25.8022 12.9841 25.3538 12.2165C25.1892 11.9379 25.0133 11.6309 24.9565 11.5342C24.8998 11.4433 24.7238 11.1362 24.5592 10.8519C24.037 9.95923 23.9859 9.85688 24.02 9.80002C24.0427 9.76591 24.3719 9.74316 24.7862 9.74316C25.3482 9.74316 25.5355 9.76022 25.5979 9.82277C25.6433 9.86825 25.9328 10.4198 26.2393 11.0452C26.5515 11.6707 26.8126 12.1824 26.8296 12.1824C26.8466 12.1824 27.1247 11.6423 27.454 10.977L28.0499 9.77159L28.8105 9.75454C29.2532 9.74885 29.5938 9.76022 29.6278 9.79434C29.6676 9.83414 29.6505 9.90237 29.5938 9.99334C29.503 10.1241 29.4292 10.2549 29.1511 10.7553C29.083 10.869 29.0092 10.9941 28.9865 11.0225C28.9638 11.0566 28.89 11.176 28.8219 11.2897C28.7537 11.4091 28.6516 11.5968 28.5891 11.7048C28.5267 11.8128 28.4245 12.0005 28.3564 12.1199C28.2883 12.2336 28.2145 12.3587 28.1918 12.3871C28.1691 12.4212 28.0953 12.5406 28.0272 12.66C27.9591 12.7738 27.8569 12.9614 27.7945 13.0694C27.4312 13.7062 27.4596 13.5698 27.4426 14.9003L27.4256 16.1398L26.858 16.1569C26.4607 16.1682 26.2677 16.1512 26.2166 16.1Z" fill="#232368"/>
<path d="M33.79 16.0774C33.7106 15.9977 33.6992 15.6339 33.6992 12.933C33.6992 10.3175 33.7106 9.86265 33.7844 9.80011C33.9036 9.69776 37.0594 9.74893 37.3318 9.86265C37.6781 9.99911 38.1832 10.3687 38.3649 10.6132C38.7054 11.0737 38.8076 11.3978 38.8076 11.9778C38.8076 12.6999 38.6203 13.1775 38.1719 13.5869C37.5702 14.1441 37.2637 14.2351 36.015 14.2351H35.0614V15.1676C35.0614 15.9636 35.0501 16.1058 34.9706 16.1342C34.9196 16.1513 34.6585 16.1683 34.3803 16.1683C34 16.1683 33.8581 16.1456 33.79 16.0774ZM37.2126 12.6487C37.5873 12.2735 37.5929 11.7276 37.2297 11.3751C36.9515 11.1079 36.7075 11.051 35.8164 11.051H35.0614V11.9494C35.0614 12.4441 35.0728 12.8648 35.0842 12.8762C35.0955 12.8876 35.5326 12.8932 36.0547 12.8819L36.9969 12.8648L37.2126 12.6487Z" fill="#232368"/>
<path d="M45.1425 16.0772C45.0574 15.9976 45.0517 15.702 45.0517 13.5356L45.0574 11.0793L44.1322 11.0509L43.207 11.0225V10.397V9.77157L45.6988 9.75451C47.5264 9.74314 48.2076 9.7602 48.27 9.80568C48.3267 9.85686 48.3438 10.0104 48.3324 10.4482L48.3154 11.0225L47.3675 11.0395L46.4139 11.0509V13.5754C46.4139 15.8271 46.4026 16.1057 46.3231 16.1341C46.2721 16.1512 46.011 16.1682 45.7328 16.1682C45.3469 16.1682 45.2106 16.1455 45.1425 16.0772Z" fill="#232368"/>
<path d="M58.3897 12.95C58.3897 14.7126 56.9594 16.1398 55.1998 16.1398C53.446 16.1398 52.0156 14.7126 52.0156 12.95C52.0156 11.1874 53.446 9.76019 55.1998 9.76019C56.9594 9.76019 58.3897 11.1874 58.3897 12.95ZM57.0559 12.9557C57.0559 11.9322 56.2272 11.1021 55.2055 11.1021C54.1838 11.1021 53.3608 11.9322 53.3608 12.9557C53.3608 13.9735 54.1838 14.8036 55.2055 14.8036C56.2272 14.8036 57.0559 13.9735 57.0559 12.9557Z" fill="#232368"/>
<path d="M62.1689 16.0772C62.0895 15.9976 62.0781 15.6337 62.0781 12.9329C62.0781 10.38 62.0895 9.86254 62.1576 9.80568C62.2087 9.7602 62.4414 9.74314 62.8217 9.75451L63.412 9.77157L63.429 11.0395L63.4404 12.3018H64.6607H65.881L65.8924 11.0338L65.9094 9.77157H66.5338H67.1581V12.9557V16.1398L66.5962 16.1568C66.2329 16.1682 66.0116 16.1512 65.9605 16.1057C65.898 16.0545 65.881 15.7986 65.881 14.8263V13.6096H64.6607H63.4404V14.8548C63.4404 15.9351 63.429 16.1057 63.3495 16.1341C63.2985 16.1512 63.0374 16.1682 62.7592 16.1682C62.379 16.1682 62.2371 16.1455 62.1689 16.0772Z" fill="#232368"/>
<path d="M81.0621 16.1001C81.0451 16.0603 81.0394 14.6217 81.0451 12.8989L81.0621 9.77167H82.7422C83.8661 9.77167 84.4677 9.79441 84.5585 9.83421C85.1261 10.1015 85.2737 10.1981 85.5064 10.454C86.1648 11.1761 86.3181 12.0688 85.9321 12.9273C85.6937 13.4561 85.2169 13.9053 84.6947 14.0986C84.4734 14.1839 84.1896 14.2124 83.3949 14.2351L82.3846 14.2635L82.3903 15.1221C82.4017 16.2024 82.43 16.1683 81.6524 16.1683C81.2551 16.1683 81.0792 16.1456 81.0621 16.1001ZM84.4223 12.7227C84.6664 12.535 84.7799 12.3076 84.7799 12.0005C84.7799 11.5229 84.5188 11.2159 84.0023 11.1079C83.7015 11.0396 82.396 11.051 82.396 11.1249C82.396 11.1477 82.396 11.5514 82.396 12.0176V12.8705H83.3155C84.2066 12.8705 84.235 12.8648 84.4223 12.7227Z" fill="#232368"/>
<path d="M90.5478 16.0774C90.4684 15.9977 90.457 15.6339 90.457 12.933C90.457 10.3175 90.4684 9.86265 90.5422 9.80011C90.6614 9.69776 93.8172 9.74893 94.0896 9.86265C94.4359 9.99911 94.941 10.3687 95.1227 10.6132C95.4632 11.0737 95.5654 11.3978 95.5654 11.9778C95.5654 12.6999 95.3781 13.1775 94.9297 13.5869C94.328 14.1441 94.0215 14.2351 92.7728 14.2351H91.8193V15.1676C91.8193 15.9636 91.8079 16.1058 91.7284 16.1342C91.6774 16.1513 91.4163 16.1683 91.1381 16.1683C90.7579 16.1683 90.616 16.1456 90.5478 16.0774ZM93.9704 12.6487C94.3451 12.2735 94.3507 11.7276 93.9875 11.3751C93.7094 11.1079 93.4653 11.051 92.5742 11.051H91.8193V11.9494C91.8193 12.4441 91.8306 12.8648 91.842 12.8762C91.8533 12.8876 92.2904 12.8932 92.8126 12.8819L93.7548 12.8648L93.9704 12.6487Z" fill="#232368"/>
<path d="M99.9977 16.0887C99.9523 16.0319 99.941 15.1619 99.9467 12.8932L99.9637 9.77167H102.348H104.732L104.749 10.4085L104.766 11.051L103.017 11.0624L101.269 11.0794V11.6764V12.2735L102.847 12.2905L104.425 12.3019L104.408 12.9444L104.391 13.5812L102.819 13.5983L101.241 13.6097V14.2067V14.8037H103.057H104.879L104.862 15.4746L104.845 16.1399L102.455 16.1569C100.48 16.1683 100.055 16.1569 99.9977 16.0887Z" fill="#232368"/>
<path d="M109.445 16.1001C109.428 16.0603 109.422 14.6217 109.428 12.8989L109.445 9.77167H111.125C112.249 9.77167 112.851 9.79441 112.941 9.83421C113.509 10.1015 113.657 10.1981 113.889 10.454C114.434 11.051 114.644 11.8072 114.462 12.5009C114.338 12.9899 113.997 13.5187 113.645 13.7745C113.503 13.8769 113.39 13.9849 113.39 14.019C113.39 14.0532 113.486 14.2124 113.605 14.3716C114.179 15.1335 114.752 15.9864 114.752 16.083C114.752 16.1569 114.638 16.1683 113.991 16.1683H113.231L112.93 15.7589C112.504 15.1733 112.164 14.6957 111.999 14.4455L111.852 14.2294L111.312 14.2465L110.767 14.2635L110.773 15.1221C110.784 16.2024 110.813 16.1683 110.035 16.1683C109.638 16.1683 109.462 16.1456 109.445 16.1001ZM112.805 12.7227C113.049 12.535 113.163 12.3076 113.163 12.0005C113.163 11.5229 112.902 11.2159 112.385 11.1079C112.084 11.0396 110.779 11.051 110.779 11.1249C110.779 11.1477 110.779 11.5514 110.779 12.0176V12.8705H111.698C112.589 12.8705 112.618 12.8648 112.805 12.7227Z" fill="#232368"/>
<path d="M77.302 11.3694C77.302 13.1321 75.8774 14.5592 74.1178 14.5592C72.3583 14.5592 70.9336 13.1321 70.9336 11.3694C70.9336 9.60679 72.3583 8.17963 74.1178 8.17963C75.8774 8.17963 77.302 9.60679 77.302 11.3694ZM75.9625 11.3694C75.9625 10.346 75.1338 9.5215 74.1178 9.5215C73.0961 9.5215 72.2731 10.346 72.2731 11.3694C72.2731 12.3872 73.0961 13.2173 74.1178 13.2173C75.1338 13.2173 75.9625 12.3872 75.9625 11.3694Z" fill="#00B2C8"/>
</g>
</g>
<defs>
<clipPath id="clip0_5671_45623">
<rect width="118" height="22" fill="white" transform="translate(0.9375 0.846191)"/>
</clipPath>
<clipPath id="clip1_5671_45623">
<rect width="110" height="22" fill="white" transform="translate(4.75 0.846191)"/>
</clipPath>
</defs>
</svg>
