<svg width="119" height="23" viewBox="0 0 119 23" fill="none" xmlns="http://www.w3.org/2000/svg">
<g clip-path="url(#clip0_5671_45732)">
<path d="M42.2852 6.92609H43.786V14.6186H48.136V15.8499H42.2852V6.92609Z" fill="black"/>
<path d="M48.9453 9.5127H50.3758V13.5792C50.3758 13.5792 50.3289 14.8896 51.6773 14.8896C53.0374 14.8896 53.2367 13.5115 53.2367 13.5115V9.5127H54.8196V15.8497H53.3891V14.7653C53.3891 14.7653 52.8146 16.0192 51.4545 16.0192C50.0944 16.0192 49.5902 15.3188 49.5902 15.3188C49.5902 15.3188 49.1095 14.9348 48.9336 14.2005V9.5127H48.9453Z" fill="black"/>
<path d="M87.0742 9.5127H88.5047V13.5792C88.5047 13.5792 88.4578 14.8896 89.8062 14.8896C91.1663 14.8896 91.3656 13.5115 91.3656 13.5115V9.5127H92.9485V15.8497H91.518V14.7653C91.518 14.7653 90.9435 16.0192 89.5834 16.0192C88.2233 16.0192 87.7191 15.3188 87.7191 15.3188C87.7191 15.3188 87.2384 14.9348 87.0625 14.2005V9.5127H87.0742Z" fill="black"/>
<path d="M55.5 9.5127H56.907V10.5519C56.907 10.5519 57.036 9.5127 58.8886 9.5127C60.7411 9.5127 61.046 10.5519 61.046 10.5519C61.046 10.5519 61.2453 10.8456 61.2922 11.2184V15.8497H59.9204V11.8058C59.9204 11.8058 59.8735 10.518 58.5837 10.518C57.3057 10.518 56.9305 11.6024 56.9305 12.2802V15.8384H55.5V9.5127Z" fill="black"/>
<path d="M65.0915 9.5127C62.2071 9.5127 62.4064 11.5686 62.4064 11.5686H63.8135C63.8135 11.5686 63.5086 10.5293 65.0681 10.5293C66.4047 10.5293 66.4282 11.5912 66.4047 11.8961C66.4047 11.9413 66.3695 11.9865 66.3109 11.9865C65.8771 12.0317 63.8252 12.235 62.9224 12.7659C62.2423 13.1613 62.0078 14.0763 62.1485 14.7427C62.3361 15.6464 63.45 16.0192 64.2825 16.0192C65.9943 16.0192 66.522 15.0251 66.522 15.0251V15.8497H67.7766V11.3765C67.7883 11.3765 67.9876 9.5127 65.0915 9.5127ZM64.7398 14.9122C64.7398 14.9122 63.6141 15.0138 63.6141 14.065C63.6141 13.1161 64.9508 13.0935 64.9508 13.0935C64.9508 13.0935 65.8771 13.1161 66.4985 12.7659C66.4985 12.7659 66.6509 14.9122 64.7398 14.9122Z" fill="black"/>
<path d="M68.6445 9.51275H70.0515V10.3148C70.0515 10.3148 70.5088 9.36591 71.6813 9.36591C72.4904 9.36591 72.7132 9.63701 72.7132 9.63701L72.2559 10.8457C72.2559 10.8457 71.8572 10.6311 71.353 10.6311C70.8489 10.6311 70.075 11.162 70.075 12.5175C70.075 13.873 70.075 15.8611 70.075 15.8611H68.6445V9.51275Z" fill="black"/>
<path d="M82.3633 9.51275H83.7703V10.3148C83.7703 10.3148 84.2276 9.36591 85.4001 9.36591C86.2091 9.36591 86.4319 9.63701 86.4319 9.63701L85.9746 10.8457C85.9746 10.8457 85.576 10.6311 85.0718 10.6311C84.5676 10.6311 83.7937 11.162 83.7937 12.5175C83.7937 13.873 83.7937 15.8611 83.7937 15.8611H82.3633V9.51275Z" fill="black"/>
<path d="M79.9942 9.77255H81.5302C81.5302 9.77255 80.8736 6.74524 77.485 6.74524C74.0965 6.74524 73.4164 9.50145 73.4164 9.50145C73.1585 10.5407 73.0412 11.5686 73.2288 12.6304C73.5688 14.5507 75.4566 16.0192 77.4616 16.0192C80.5218 16.0192 81.3074 13.6697 81.3074 13.6697L81.5302 12.9693H79.9239C79.9239 12.9693 79.5252 14.7089 77.6609 14.7089C75.8083 14.7089 75.1048 13.2856 75.0931 13.2856C74.8117 12.6982 74.5889 12.0317 74.5889 11.3879C74.5889 10.4616 74.9407 9.68219 74.9407 9.68219C74.9407 9.68219 75.6442 8.08946 77.5788 8.08946C79.5135 8.08946 79.9942 9.77255 79.9942 9.77255Z" fill="black"/>
<path d="M97.9109 11.3314H99.271C99.271 11.3314 99.4 10.6311 98.9193 10.1679C98.4385 9.70478 97.6647 9.36591 96.5625 9.36591C95.4603 9.36591 93.8774 9.80645 93.8774 11.4444C93.8774 13.0823 96.4101 13.2404 96.4101 13.2404C96.4101 13.2404 97.9461 13.4099 97.9461 14.2119C97.9461 15.0139 96.586 14.9913 96.586 14.9913C96.586 14.9913 95.0851 15.0365 95.0851 14.0989H93.6898C93.6898 14.0989 93.5022 16.0305 96.4804 16.0305C99.4586 16.0305 99.4352 14.0198 99.4352 14.0198C99.4352 14.0198 99.4352 12.5175 98.204 12.2577C96.9729 11.9979 95.2141 12.1673 95.2141 11.2297C95.2141 10.2922 96.5625 10.3261 96.5625 10.3261C96.5625 10.3261 97.9109 10.2583 97.9109 11.3314Z" fill="black"/>
<path d="M100.172 6.3385H101.708V10.5745C101.708 10.5745 101.813 9.36582 103.619 9.36582C103.666 9.36582 103.713 9.36582 103.771 9.36582C104.991 9.4223 105.941 10.4276 105.941 11.6024V15.8497H104.663V11.9526C104.663 11.2071 104.041 10.5858 103.267 10.5745C103.256 10.5745 103.244 10.5745 103.232 10.5745C102.587 10.5745 102.212 10.9134 102.001 11.2522C101.813 11.5459 101.731 11.8848 101.731 12.2237V15.8497H100.195V6.3385H100.172Z" fill="black"/>
<path d="M25.1906 20.4017C28.3118 20.4017 30.8421 17.964 30.8421 14.957C30.8421 11.95 28.3118 9.51239 25.1906 9.51239C22.0693 9.51239 19.5391 11.95 19.5391 14.957C19.5391 17.964 22.0693 20.4017 25.1906 20.4017Z" fill="url(#paint0_radial_5671_45732)"/>
<path d="M35.0426 17.1712C35.1715 16.5386 35.2419 15.8947 35.2419 15.217C35.2419 9.87398 30.7394 5.53634 25.1934 5.53634C19.6475 5.53634 15.145 9.87398 15.145 15.217C15.145 15.8834 15.2154 16.5386 15.3561 17.1712C14.6643 15.7931 14.2773 14.2342 14.2773 12.5963C14.2773 6.77889 19.1667 2.06848 25.2052 2.06848C31.2436 2.06848 36.1213 6.79019 36.1213 12.6076C36.1213 14.2455 35.7343 15.7931 35.0426 17.1712Z" fill="url(#paint1_radial_5671_45732)"/>
</g>
<defs>
<radialGradient id="paint0_radial_5671_45732" cx="0" cy="0" r="1" gradientUnits="userSpaceOnUse" gradientTransform="translate(28.9661 2.10386) scale(18.9348 18.2417)">
<stop stop-color="#0AEEF9"/>
<stop offset="1" stop-color="#21F996"/>
</radialGradient>
<radialGradient id="paint1_radial_5671_45732" cx="0" cy="0" r="1" gradientUnits="userSpaceOnUse" gradientTransform="translate(28.9689 2.10398) scale(18.9348 18.2417)">
<stop stop-color="#0AEEF9"/>
<stop offset="1" stop-color="#21F996"/>
</radialGradient>
<clipPath id="clip0_5671_45732">
<rect width="118" height="22" fill="white" transform="translate(0.6875 0.846191)"/>
</clipPath>
</defs>
</svg>
