<svg width="119" height="23" viewBox="0 0 119 23" fill="none" xmlns="http://www.w3.org/2000/svg">
<g clip-path="url(#clip0_5671_45701)">
<path d="M56.4852 7.85156V16.5271H54.9609V7.85156H56.4852Z" fill="#181B2B"/>
<path d="M49.1198 7.85155H47.8281V8.97923H49.1198V14.3235C49.1198 15.1682 49.2716 15.7782 49.575 16.1541C49.8785 16.53 50.3826 16.7181 51.0887 16.7181C51.4978 16.7181 51.8892 16.6805 52.2635 16.6055C52.6378 16.53 52.9802 16.4289 53.2907 16.3016L52.9944 15.3128C52.7541 15.3936 52.5315 15.4599 52.3273 15.5121C52.1224 15.5639 51.8792 15.59 51.597 15.59C51.2587 15.59 51.0149 15.4773 50.8667 15.2518C50.7185 15.0264 50.6442 14.6592 50.6442 14.1503V8.97972H52.9306V7.85204H50.6442V5.73505L49.1198 6.13416V7.85155Z" fill="#181B2B"/>
<path d="M23.7906 15.1042C24.0728 15.243 24.4081 15.3616 24.7966 15.4598C25.1845 15.558 25.5835 15.6073 25.9927 15.6073C26.4585 15.6073 26.8534 15.5115 27.1781 15.3195C27.5028 15.1274 27.6652 14.8163 27.6652 14.3858C27.6652 14.0254 27.566 13.7289 27.3688 13.4961C27.171 13.2634 26.9207 13.054 26.6173 12.8677C26.3138 12.6819 25.9856 12.5107 25.6325 12.3549C25.2795 12.1991 24.9513 12.0124 24.6478 11.7933C24.3444 11.5741 24.0935 11.3148 23.8963 11.0153C23.6985 10.7154 23.5999 10.3352 23.5999 9.87411C23.5999 9.13636 23.8431 8.5805 24.3302 8.20558C24.8173 7.83065 25.5056 7.64343 26.3947 7.64343C26.9733 7.64343 27.4745 7.68697 27.8977 7.77357C28.321 7.86016 28.6883 7.97917 28.9988 8.12914L28.5968 9.17023C28.3288 9.0546 28.0176 8.9593 27.6652 8.88383C27.3121 8.80884 26.952 8.77111 26.5854 8.77111C26.0771 8.77111 25.7069 8.85771 25.4737 9.03138C25.2405 9.20506 25.1242 9.47694 25.1242 9.84703C25.1242 10.1363 25.2228 10.3821 25.4206 10.5843C25.6184 10.787 25.8687 10.9718 26.1721 11.1397C26.4756 11.3075 26.8038 11.4778 27.1569 11.6515C27.5093 11.8252 27.8375 12.0303 28.1416 12.2673C28.445 12.5044 28.6954 12.7879 28.8931 13.1173C29.0909 13.4468 29.1895 13.8609 29.1895 14.3577C29.1895 14.6819 29.1257 14.9881 28.9988 15.2774C28.8719 15.5667 28.6776 15.8182 28.4167 16.0321C28.1551 16.2464 27.831 16.4167 27.4426 16.5439C27.0541 16.6712 26.599 16.735 26.0771 16.735C25.456 16.735 24.9194 16.6857 24.4678 16.5874C24.0161 16.4892 23.6347 16.3591 23.3242 16.197L23.7906 15.1042Z" fill="#181B2B"/>
<path d="M20.1406 12.4147C20.1406 12.1208 20.236 11.9003 20.4272 11.7532C20.6185 11.606 20.8767 11.5327 21.2024 11.5327C21.5281 11.5327 21.7863 11.6065 21.9776 11.7532C22.1688 11.9003 22.2642 12.1208 22.2642 12.4147C22.2642 12.7194 22.1688 12.9452 21.9776 13.0919C21.7863 13.2386 21.5281 13.3123 21.2024 13.3123C20.8767 13.3123 20.6185 13.2386 20.4272 13.0919C20.236 12.9452 20.1406 12.7194 20.1406 12.4147Z" fill="#181B2B"/>
<path fill-rule="evenodd" clip-rule="evenodd" d="M32.5025 7.88632C31.9162 8.00194 31.4186 8.16401 31.0095 8.37203L31.5136 9.35941C31.8218 9.20944 32.2061 9.08463 32.6678 8.98642C33.1295 8.88822 33.5556 8.83887 33.9477 8.83887C34.5764 8.83887 35.0103 8.97191 35.2482 9.23798C35.4856 9.50406 35.6048 9.96655 35.6048 10.6259C35.6048 10.9036 35.5841 11.2219 35.5422 11.5804C35.3876 11.5688 35.2405 11.563 35.1006 11.563H34.6809C34.051 11.563 33.4801 11.6066 32.9694 11.6931C32.4582 11.7802 32.0171 11.9278 31.6464 12.1358C31.2751 12.3443 30.9882 12.6162 30.7851 12.9514C30.5814 13.2867 30.4805 13.7032 30.4805 14.2006C30.4805 14.9639 30.7219 15.5624 31.2054 15.9963C31.689 16.4302 32.3088 16.647 33.0657 16.647C33.7523 16.647 34.299 16.5372 34.7051 16.3175C35.1113 16.0979 35.4194 15.8376 35.6296 15.5367H35.7134L36.0836 16.5604H37.2773C37.1782 16.2247 37.1108 15.8691 37.0742 15.4932C37.0376 15.1178 37.0199 14.71 37.0199 14.2702C37.0199 13.6805 37.0376 13.056 37.0742 12.3966C37.1102 11.7372 37.1285 11.0609 37.1285 10.3666C37.1285 10.0198 37.0972 9.68741 37.0335 9.36909C36.9703 9.05125 36.8357 8.76776 36.6315 8.5191C36.4266 8.27092 36.1444 8.07402 35.7843 7.92938C35.4242 7.78521 34.9477 7.71265 34.355 7.71265C33.7056 7.71265 33.0881 7.7707 32.5025 7.88632ZM35.1432 12.5451C35.2831 12.5509 35.4218 12.5596 35.5617 12.5712H35.5611V14.41C35.4354 14.6877 35.2128 14.9422 34.8917 15.1734C34.5711 15.4047 34.1177 15.5203 33.5321 15.5203C33.0999 15.5203 32.748 15.3931 32.4759 15.1386C32.2038 14.8841 32.0679 14.5256 32.0679 14.0627C32.0679 13.7622 32.1411 13.5136 32.2875 13.3167C32.434 13.1203 32.633 12.964 32.8839 12.8484C33.1348 12.7327 33.4205 12.6519 33.7416 12.6055C34.0628 12.5596 34.3905 12.5363 34.7251 12.5363C34.8645 12.5363 35.0038 12.5393 35.1432 12.5451Z" fill="#181B2B"/>
<path d="M45.0105 16.527V11.235C45.0105 10.3676 44.8865 9.74011 44.6397 9.35261C44.3924 8.96511 43.9514 8.7716 43.3162 8.7716C42.7512 8.7716 42.2854 8.91044 41.9188 9.18812C41.5516 9.46581 41.2836 9.80687 41.1141 10.2118V16.5275H39.5898V7.85146H40.6908L40.966 8.77111H41.0297C41.2977 8.45859 41.6614 8.193 42.1201 7.97288C42.5788 7.75325 43.1261 7.64343 43.7613 7.64343C44.2129 7.64343 44.6114 7.69568 44.9573 7.7997C45.3034 7.9037 45.5926 8.08028 45.8258 8.32894C46.0584 8.5776 46.2349 8.90995 46.3553 9.32648C46.4752 9.74301 46.5354 10.2694 46.5354 10.9055V16.527H45.0105Z" fill="#181B2B"/>
<path d="M64.2518 11.374V16.5267H65.7761V10.2807C65.9031 9.81818 66.1256 9.45099 66.4433 9.17911C66.7609 8.90723 67.1876 8.77129 67.7243 8.77129C68.3596 8.77129 68.7651 8.95657 68.9417 9.32666C69.1176 9.69724 69.2061 10.2579 69.2061 11.0097V16.5267H70.7305V10.853C70.7305 10.2284 70.6808 9.71078 70.5823 9.30006C70.4837 8.88981 70.3313 8.55988 70.1271 8.31122C69.9222 8.06256 69.6542 7.88889 69.3224 7.79068C68.9906 7.69247 68.5922 7.64313 68.1263 7.64313C67.5614 7.64313 67.043 7.75875 66.5702 7.99C66.0972 8.22172 65.7336 8.53956 65.4798 8.94448C65.282 8.45877 65.0104 8.12013 64.6644 7.92952C64.3179 7.73843 63.8769 7.64313 63.3409 7.64313C62.7056 7.64313 62.1832 7.74762 61.774 7.95565C61.3649 8.16416 61.0118 8.43604 60.7155 8.77129H60.6518L60.3766 7.85164H59.2969V16.5267H60.8212V10.2807C60.9487 9.88736 61.1778 9.53759 61.5096 9.23088C61.8407 8.92464 62.2469 8.77129 62.7269 8.77129C63.0516 8.77129 63.3125 8.82064 63.5103 8.91884C63.7081 9.01705 63.8627 9.1704 63.9761 9.37843C64.0888 9.58694 64.1632 9.85591 64.1987 10.1854C64.2341 10.5153 64.2518 10.9115 64.2518 11.374Z" fill="#181B2B"/>
<path fill-rule="evenodd" clip-rule="evenodd" d="M79.4135 15.9369C79.0746 16.1914 78.6436 16.3883 78.1218 16.5267C77.5993 16.6655 77.0491 16.7347 76.4705 16.7347C75.807 16.7347 75.232 16.6278 74.7449 16.4139C74.2578 16.2001 73.8558 15.8934 73.5382 15.4943C73.2205 15.0952 72.988 14.6181 72.8398 14.0628C72.6916 13.5074 72.6172 12.8829 72.6172 12.1892C72.6172 10.7088 72.949 9.58064 73.6125 8.80564C74.2761 8.03063 75.2142 7.64313 76.4286 7.64313C76.8236 7.64313 77.2156 7.68376 77.604 7.76456C77.9919 7.84583 78.3414 8.00741 78.6519 8.25027C78.9624 8.49312 79.2127 8.83466 79.4034 9.27393C79.5941 9.71368 79.6891 10.2865 79.6891 10.9918C79.6891 11.1887 79.6786 11.3997 79.6573 11.6251C79.636 11.8505 79.6113 12.0846 79.5835 12.328H74.2053C74.2053 12.8253 74.2543 13.2766 74.3535 13.6816C74.4521 14.0865 74.6073 14.4305 74.8193 14.7139C75.0312 14.9975 75.3027 15.2171 75.6346 15.3733C75.9664 15.5296 76.379 15.6075 76.8731 15.6075C77.2545 15.6075 77.6318 15.5499 78.0061 15.4338C78.3797 15.3182 78.6655 15.1794 78.8638 15.0173L79.4135 15.9369ZM78.228 11.2874C78.2563 10.42 78.1082 9.78383 77.7835 9.37891C77.4588 8.97399 77.0136 8.77178 76.4499 8.77178C75.8005 8.77178 75.2851 8.97447 74.9043 9.37891C74.5229 9.78383 74.2974 10.42 74.2265 11.2874H78.228Z" fill="#181B2B"/>
<path d="M87.2489 11.235V16.527H88.7726V10.9055C88.7726 10.2694 88.7124 9.74301 88.5925 9.32648C88.4721 8.90995 88.2962 8.5776 88.063 8.32894C87.8304 8.08028 87.5411 7.9037 87.1952 7.7997C86.8492 7.69568 86.4507 7.64343 85.9991 7.64343C85.3644 7.64343 84.8172 7.75325 84.3584 7.97288C83.8998 8.193 83.5361 8.45859 83.268 8.77111H83.2043L82.9292 7.85146H81.8281V16.5275H83.3525V10.2118C83.5219 9.80687 83.7899 9.46581 84.1571 9.18812C84.5237 8.91044 84.9896 8.7716 85.5545 8.7716C86.1898 8.7716 86.6307 8.96511 86.8782 9.35261C87.1249 9.74011 87.2489 10.3676 87.2489 11.235Z" fill="#181B2B"/>
<path d="M90.0664 7.85155H91.3582V6.13416L92.8824 5.73505V7.85204H95.1689V8.97972H92.8824V14.1503C92.8824 14.6592 92.9563 15.0264 93.105 15.2518C93.2532 15.4773 93.4964 15.59 93.8353 15.59C94.1175 15.59 94.3607 15.5639 94.5656 15.5121C94.7699 15.4599 94.9925 15.3936 95.2327 15.3128L95.5291 16.3016C95.2185 16.4289 94.8761 16.53 94.5024 16.6055C94.1282 16.6805 93.7368 16.7181 93.327 16.7181C92.621 16.7181 92.1167 16.53 91.8133 16.1541C91.5099 15.7782 91.3582 15.1682 91.3582 14.3235V8.97923H90.0664V7.85155Z" fill="#181B2B"/>
<path d="M96.8769 11.6165C96.685 11.7637 96.5898 11.9841 96.5898 12.278C96.5898 12.5828 96.685 12.8085 96.8769 12.9553C97.0681 13.1019 97.3257 13.1757 97.6521 13.1757C97.9777 13.1757 98.2353 13.1019 98.4272 12.9553C98.6183 12.8085 98.7135 12.5828 98.7135 12.278C98.7135 11.9841 98.6183 11.7637 98.4272 11.6165C98.2353 11.4698 97.9777 11.3961 97.6521 11.3961C97.3257 11.3961 97.0681 11.4694 96.8769 11.6165Z" fill="#181B2B"/>
</g>
<defs>
<clipPath id="clip0_5671_45701">
<rect width="118" height="22" fill="white" transform="translate(0.4375 0.846191)"/>
</clipPath>
</defs>
</svg>
