<svg width="236" height="32" viewBox="0 0 236 32" fill="none" xmlns="http://www.w3.org/2000/svg">
<path d="M71.726 22.5581C71.9645 22.5581 72.1732 22.5879 72.3818 22.6177C72.5905 22.6475 72.7694 22.7072 72.9184 22.7668L72.7992 23.2437C72.6501 23.1841 72.5011 23.1543 72.3222 23.1245C72.1434 23.0947 71.9645 23.0649 71.7558 23.0649C71.5471 23.0649 71.3385 23.0947 71.1298 23.1841C70.9211 23.2437 70.7423 23.363 70.5932 23.512C70.4442 23.6611 70.3249 23.8399 70.2057 24.0784C70.0864 24.3169 70.0566 24.5852 70.0566 24.8833C70.0566 25.1516 70.0864 25.3603 70.1759 25.5689C70.2653 25.7776 70.3845 25.9267 70.5038 26.0757C70.6528 26.2248 70.8019 26.3142 70.9807 26.3738C71.1596 26.4334 71.3385 26.4931 71.5471 26.4931C71.9347 26.4931 72.352 26.3738 72.7097 26.1651L72.9184 26.5825C72.7097 26.7017 72.5011 26.7912 72.2924 26.8806C72.0539 26.9402 71.8154 26.9998 71.5173 26.9998C71.2192 26.9998 70.9509 26.9402 70.6826 26.8508C70.4442 26.7614 70.2355 26.6123 70.0566 26.4334C69.8778 26.2546 69.7287 26.0161 69.6393 25.7776C69.5499 25.5093 69.4902 25.241 69.4902 24.9131C69.4902 24.5554 69.5499 24.2275 69.6691 23.9592C69.7883 23.6611 69.9374 23.4226 70.1461 23.2437C70.3547 23.0351 70.5634 22.886 70.8615 22.7966C71.1 22.6177 71.3981 22.5581 71.726 22.5581Z" fill="white"/>
<path d="M73.5439 26.9103V22.6475H74.796C75.2729 22.6475 75.6307 22.7369 75.899 22.9456C76.1672 23.1244 76.2865 23.4225 76.2865 23.8101C76.2865 24.1082 76.1971 24.3765 76.048 24.5553C75.899 24.7342 75.6903 24.8832 75.4518 25.0025L76.7635 26.9401L76.1673 26.9998L74.9152 25.1515H74.0805V26.97H73.5439V26.9103ZM74.0805 24.6448H75.1239C75.3028 24.5851 75.422 24.4957 75.5412 24.3466C75.6605 24.2274 75.7201 24.0485 75.7201 23.8101C75.7201 23.5418 75.6307 23.3629 75.4518 23.2437C75.2729 23.1244 75.0345 23.0648 74.7065 23.0648H74.0805V24.6448Z" fill="white"/>
<path d="M78.0159 25.241L76.5254 22.6475L77.1514 22.6177L78.314 24.7342L79.4766 22.6475H80.0728L78.5525 25.241V26.9402H78.0159V25.241Z" fill="white"/>
<path d="M80.6094 22.6177H81.8913C82.0999 22.6177 82.2788 22.6475 82.4577 22.6773C82.6365 22.7071 82.7856 22.7965 82.9048 22.886C83.0241 22.9754 83.1433 23.0946 83.2029 23.2735C83.2924 23.4226 83.3222 23.6014 83.3222 23.8399C83.3222 24.2572 83.1731 24.5553 82.9048 24.7938C82.6365 25.0323 82.2192 25.1516 81.7124 25.1516H81.0864V26.9104H80.5498V22.6177H80.6094ZM81.146 23.0946V24.6746H81.7422C82.0701 24.6746 82.3086 24.615 82.5173 24.4659C82.6961 24.3169 82.8154 24.1082 82.8154 23.8101C82.8154 23.661 82.7856 23.5716 82.726 23.4822C82.6663 23.3927 82.6067 23.3033 82.5173 23.2437C82.4279 23.1841 82.3086 23.1543 82.1894 23.1245C82.0701 23.0946 81.9211 23.0946 81.772 23.0946H81.146Z" fill="white"/>
<path d="M83.7988 22.6177H87.078L87.0482 23.0946H85.7067V26.9104H85.1701V23.0946H83.7988V22.6177Z" fill="white"/>
<path d="M89.6121 22.5581C89.9102 22.5581 90.1785 22.6177 90.4467 22.7072C90.6852 22.7966 90.9237 22.9456 91.1026 23.1245C91.2814 23.3034 91.4305 23.5418 91.5199 23.8101C91.6093 24.0784 91.669 24.3765 91.669 24.7044C91.669 25.0324 91.6093 25.3603 91.5199 25.6286C91.4305 25.8969 91.2814 26.1353 91.1026 26.344C90.9237 26.5527 90.715 26.7017 90.4467 26.7912C90.2083 26.9104 89.94 26.9402 89.6419 26.9402C89.3438 26.9402 89.0755 26.8806 88.8072 26.7912C88.5389 26.7017 88.3302 26.5527 88.1514 26.3738C87.9725 26.195 87.8234 25.9565 87.734 25.6882C87.6446 25.4199 87.585 25.1218 87.585 24.7939C87.585 24.4362 87.6446 24.1381 87.734 23.8698C87.8533 23.6015 87.9725 23.363 88.1812 23.1543C88.36 22.9754 88.5687 22.8264 88.837 22.7072C89.0457 22.6177 89.314 22.5581 89.6121 22.5581ZM88.1215 24.7939C88.1215 25.0622 88.1514 25.3007 88.2408 25.5093C88.3302 25.718 88.4495 25.8969 88.5985 26.0459C88.7476 26.195 88.8966 26.2844 89.0755 26.3738C89.2543 26.4334 89.4332 26.4931 89.6419 26.4931C89.8207 26.4931 89.9996 26.4633 90.1785 26.3738C90.3573 26.2844 90.5064 26.195 90.6554 26.0459C90.8045 25.8969 90.8939 25.718 90.9833 25.5093C91.0728 25.3007 91.1026 25.0324 91.1026 24.7641C91.1026 24.4958 91.0728 24.2573 90.9833 24.0486C90.8939 23.8399 90.8045 23.6611 90.6554 23.512C90.5064 23.363 90.3573 23.2736 90.1785 23.1841C89.9996 23.1245 89.7909 23.0649 89.6121 23.0649C89.4332 23.0649 89.2543 23.0947 89.0755 23.1841C88.8966 23.2437 88.7476 23.363 88.5985 23.512C88.4495 23.6611 88.36 23.8399 88.2706 24.0486C88.1812 24.2573 88.1215 24.5256 88.1215 24.7939Z" fill="white"/>
<path d="M94.6205 22.5581C94.859 22.5581 95.0677 22.5879 95.2764 22.6177C95.485 22.6475 95.6639 22.7072 95.8129 22.7668L95.6937 23.2437C95.5447 23.1841 95.3956 23.1543 95.2167 23.1245C95.0379 23.0947 94.859 23.0649 94.6503 23.0649C94.4417 23.0649 94.233 23.0947 94.0243 23.1841C93.8157 23.2437 93.6368 23.363 93.4877 23.512C93.3387 23.6611 93.2195 23.8399 93.1002 24.0784C92.981 24.3169 92.9512 24.5852 92.9512 24.8833C92.9512 25.1516 92.981 25.3603 93.0704 25.5689C93.1598 25.7776 93.2791 25.9267 93.3983 26.0757C93.5474 26.2248 93.6964 26.3142 93.8753 26.3738C94.0541 26.4334 94.233 26.4931 94.4417 26.4931C94.8292 26.4931 95.2466 26.3738 95.6043 26.1651L95.8129 26.5825C95.6043 26.7017 95.3956 26.7912 95.1869 26.8806C94.9485 26.9402 94.71 26.9998 94.4119 26.9998C94.1138 26.9998 93.8455 26.9402 93.5772 26.8508C93.3387 26.7614 93.13 26.6123 92.9512 26.4334C92.7723 26.2546 92.6232 26.0161 92.5338 25.7776C92.4444 25.5093 92.3848 25.241 92.3848 24.9131C92.3848 24.5554 92.4444 24.2275 92.5636 23.9592C92.6829 23.6611 92.8319 23.4226 93.0406 23.2437C93.2493 23.0351 93.4579 22.886 93.756 22.7966C94.0243 22.6177 94.3224 22.5581 94.6205 22.5581Z" fill="white"/>
<path d="M96.1406 25.241V22.6177H96.6772V25.1814C96.6772 25.4198 96.707 25.6285 96.7666 25.7776C96.8263 25.9266 96.9157 26.0757 97.0051 26.1651C97.0946 26.2545 97.2138 26.344 97.3628 26.3738C97.5119 26.4334 97.6609 26.4334 97.81 26.4334C97.9591 26.4334 98.1081 26.4036 98.2572 26.3738C98.4062 26.344 98.5255 26.2545 98.6149 26.1353C98.7043 26.016 98.7937 25.8968 98.8534 25.7179C98.913 25.5391 98.9428 25.3304 98.9428 25.0919V22.6177H99.4794V25.1516C99.4794 25.4198 99.4496 25.6583 99.3899 25.8968C99.3303 26.1353 99.2111 26.3142 99.0918 26.4632C98.9428 26.6123 98.7937 26.7315 98.5851 26.8209C98.3764 26.9104 98.1379 26.9402 97.8398 26.9402C97.5715 26.9402 97.3032 26.9104 97.0946 26.8209C96.8859 26.7315 96.707 26.6123 96.5878 26.4632C96.4387 26.3142 96.3493 26.1353 96.2897 25.9266C96.1704 25.7478 96.1406 25.5093 96.1406 25.241Z" fill="white"/>
<path d="M100.612 26.9103V22.6475H101.864C102.341 22.6475 102.699 22.7369 102.967 22.9456C103.236 23.1244 103.355 23.4225 103.355 23.8101C103.355 24.1082 103.265 24.3765 103.116 24.5553C102.967 24.7342 102.759 24.8832 102.52 25.0025L103.832 26.9401L103.236 26.9998L101.984 25.1515H101.149V26.97H100.612V26.9103ZM101.149 24.6448H102.192C102.371 24.5851 102.49 24.4957 102.61 24.3466C102.729 24.2274 102.788 24.0485 102.788 23.8101C102.788 23.5418 102.699 23.3629 102.52 23.2437C102.341 23.1244 102.103 23.0648 101.775 23.0648H101.149V24.6448Z" fill="white"/>
<path d="M104.368 26.9103V22.6475H105.62C106.097 22.6475 106.455 22.7369 106.723 22.9456C106.991 23.1244 107.111 23.4225 107.111 23.8101C107.111 24.1082 107.021 24.3765 106.872 24.5553C106.723 24.7342 106.515 24.8832 106.276 25.0025L107.588 26.9401L106.991 26.9998L105.739 25.1515H104.905V26.97H104.368V26.9103ZM104.905 24.6448H105.948C106.127 24.5851 106.246 24.4957 106.365 24.3466C106.485 24.2274 106.544 24.0485 106.544 23.8101C106.544 23.5418 106.455 23.3629 106.276 23.2437C106.097 23.1244 105.859 23.0648 105.531 23.0648H104.905V24.6448Z" fill="white"/>
<path d="M108.125 26.9103V22.6475H110.599L110.569 23.1244H108.662V24.4957H110.45V24.9429H108.662V26.4632H110.689L110.659 26.9401H108.125V26.9103Z" fill="white"/>
<path d="M111.493 22.6177L111.91 22.5879L114.444 26.0161L114.414 24.7044V22.5879H114.921V26.9104L114.504 26.9402L111.94 23.4822L111.97 24.7342V26.9104H111.463V22.6177H111.493Z" fill="white"/>
<path d="M117.961 22.5581C118.2 22.5581 118.409 22.5879 118.617 22.6177C118.826 22.6475 119.005 22.7072 119.154 22.7668L119.035 23.2437C118.885 23.1841 118.736 23.1543 118.558 23.1245C118.379 23.0947 118.2 23.0649 117.991 23.0649C117.782 23.0649 117.574 23.0947 117.365 23.1841C117.156 23.2437 116.978 23.363 116.829 23.512C116.68 23.6611 116.56 23.8399 116.441 24.0784C116.322 24.3169 116.292 24.5852 116.292 24.8833C116.292 25.1516 116.322 25.3603 116.411 25.5689C116.501 25.7776 116.62 25.9267 116.739 26.0757C116.888 26.2248 117.037 26.3142 117.216 26.3738C117.395 26.4334 117.574 26.4931 117.782 26.4931C118.17 26.4931 118.587 26.3738 118.945 26.1651L119.154 26.5825C118.945 26.7017 118.736 26.7912 118.528 26.8806C118.289 26.9402 118.051 26.9998 117.753 26.9998C117.455 26.9998 117.186 26.9402 116.918 26.8508C116.68 26.7614 116.471 26.6123 116.292 26.4334C116.113 26.2546 115.964 26.0161 115.875 25.7776C115.785 25.5093 115.726 25.241 115.726 24.9131C115.726 24.5554 115.785 24.2275 115.904 23.9592C116.024 23.6611 116.173 23.4226 116.381 23.2437C116.59 23.0351 116.799 22.886 117.097 22.7966C117.365 22.6177 117.663 22.5581 117.961 22.5581Z" fill="white"/>
<path d="M120.704 25.241L119.214 22.6475L119.84 22.6177L121.002 24.7342L122.165 22.6475H122.761L121.241 25.241V26.9402H120.704V25.241Z" fill="white"/>
<path d="M124.789 22.6177L125.206 22.5879L127.74 26.0161L127.71 24.7044V22.5879H128.217V26.9104L127.799 26.9402L125.236 23.4822L125.266 24.7342V26.9104H124.759V22.6177H124.789Z" fill="white"/>
<path d="M129.707 26.9103V22.6475H132.181L132.151 23.1244H130.244V24.4957H132.032V24.9429H130.244V26.4632H132.271L132.241 26.9401H129.707V26.9103Z" fill="white"/>
<path d="M133.761 26.9402L132.271 22.6177L132.837 22.5879L133.761 25.4497L134 26.3142L134.178 25.4795L134.894 22.886L135.43 22.8562L136.146 25.4795L136.325 26.3142L136.533 25.4795L137.428 22.6177H137.994L136.593 26.8806L136.056 26.9104L135.401 24.5256L135.162 23.6014L134.924 24.5256L134.298 26.8508L133.761 26.9402Z" fill="white"/>
<path d="M138.382 26.2248C138.531 26.2844 138.71 26.3441 138.889 26.4037C139.068 26.4633 139.276 26.4931 139.485 26.4931C139.604 26.4931 139.753 26.4633 139.872 26.4335C139.992 26.4037 140.111 26.3441 140.2 26.2844C140.29 26.2248 140.379 26.1354 140.409 26.046C140.439 25.9565 140.498 25.8373 140.498 25.718C140.498 25.5988 140.469 25.5094 140.409 25.4199C140.349 25.3305 140.29 25.2709 140.2 25.2113C140.111 25.1517 140.022 25.092 139.902 25.0622C139.783 25.0026 139.664 24.9728 139.545 24.9132C139.395 24.8535 139.246 24.7939 139.097 24.7343C138.948 24.6747 138.829 24.5853 138.71 24.4958C138.591 24.4064 138.501 24.2872 138.442 24.1381C138.382 23.989 138.352 23.84 138.352 23.6313C138.352 23.4525 138.382 23.3034 138.471 23.1544C138.561 23.0053 138.65 22.8861 138.769 22.7966C138.889 22.7072 139.038 22.6178 139.187 22.588C139.336 22.5283 139.515 22.4985 139.694 22.4985C139.813 22.4985 139.932 22.4985 140.022 22.4985C140.111 22.4985 140.23 22.5283 140.32 22.5283C140.409 22.5283 140.528 22.5582 140.618 22.588C140.707 22.6178 140.826 22.6476 140.946 22.7072L140.797 23.1842C140.707 23.1544 140.618 23.1246 140.528 23.0947C140.439 23.0649 140.349 23.0351 140.26 23.0351C140.171 23.0351 140.081 23.0053 139.992 22.9755C139.902 22.9457 139.783 22.9457 139.694 22.9457C139.604 22.9457 139.485 22.9457 139.395 22.9755C139.306 23.0053 139.217 23.0351 139.157 23.0947C139.097 23.1544 139.038 23.214 138.978 23.2736C138.948 23.363 138.919 23.4227 138.919 23.5419C138.919 23.6611 138.948 23.7506 138.978 23.84C139.008 23.9294 139.097 23.9891 139.157 24.0487C139.217 24.1083 139.336 24.1679 139.425 24.1977C139.515 24.2275 139.634 24.2872 139.753 24.317C139.902 24.3766 140.081 24.4362 140.23 24.4958C140.379 24.5554 140.528 24.6449 140.648 24.7343C140.767 24.8237 140.856 24.943 140.946 25.0622C141.005 25.1815 141.065 25.3603 141.065 25.5392C141.065 25.7479 141.035 25.9267 140.946 26.0758C140.856 26.2248 140.767 26.3739 140.618 26.4931C140.469 26.6124 140.32 26.672 140.141 26.7316C139.962 26.7912 139.753 26.821 139.515 26.821C139.246 26.821 138.978 26.7912 138.799 26.7316C138.591 26.672 138.412 26.6124 138.263 26.5229L138.382 26.2248Z" fill="white"/>
<path d="M144.106 24.7938C144.016 24.6746 143.927 24.5852 143.867 24.4957C143.808 24.4063 143.748 24.3169 143.718 24.2274C143.688 24.138 143.659 24.0486 143.629 23.9591C143.599 23.8697 143.599 23.7803 143.599 23.661C143.599 23.5418 143.629 23.4226 143.659 23.2735C143.718 23.1543 143.778 23.035 143.867 22.9456C143.957 22.8562 144.076 22.7667 144.195 22.7071C144.344 22.6475 144.493 22.6177 144.642 22.6177C144.791 22.6177 144.94 22.6475 145.06 22.6773C145.179 22.7071 145.298 22.7965 145.388 22.886C145.477 22.9754 145.537 23.0648 145.596 23.1841C145.656 23.3033 145.656 23.4226 145.656 23.5716C145.656 23.7207 145.626 23.8697 145.566 23.9889C145.507 24.1082 145.447 24.2274 145.358 24.3169C145.268 24.4063 145.179 24.4957 145.06 24.5852C144.94 24.6746 144.821 24.7342 144.702 24.8236C144.762 24.9131 144.851 24.9727 144.94 25.0621C145.03 25.1516 145.119 25.241 145.209 25.3304L145.686 25.8372C145.775 25.6583 145.865 25.4795 145.894 25.3006C145.924 25.1217 145.954 24.9727 145.984 24.8534L146.431 24.9727C146.401 25.241 146.341 25.4795 146.282 25.6583C146.222 25.867 146.133 26.016 146.043 26.1651L146.699 26.8507L146.073 26.8805L145.715 26.5228C145.537 26.6719 145.358 26.7613 145.149 26.8209C144.94 26.8805 144.732 26.9104 144.493 26.9104C144.314 26.9104 144.136 26.8805 143.986 26.8507C143.837 26.7911 143.688 26.7315 143.599 26.6421C143.48 26.5526 143.39 26.4632 143.331 26.3142C143.271 26.1949 143.241 26.0459 143.241 25.8968C143.241 25.7776 143.271 25.6583 143.301 25.5391C143.331 25.4198 143.39 25.3304 143.45 25.241C143.51 25.1516 143.599 25.0621 143.718 24.9727C143.837 24.8833 143.957 24.8833 144.106 24.7938ZM144.612 26.5824C144.791 26.5824 144.97 26.5526 145.119 26.493C145.268 26.4334 145.388 26.3738 145.477 26.2843L144.851 25.6285C144.762 25.5391 144.702 25.4497 144.612 25.3602C144.523 25.2708 144.463 25.1814 144.404 25.1217C144.195 25.2708 144.046 25.39 143.957 25.5093C143.867 25.6285 143.837 25.7776 143.837 25.9564C143.837 26.1651 143.897 26.3142 144.046 26.4036C144.195 26.5228 144.374 26.5824 144.612 26.5824ZM144.493 24.5553C144.762 24.4063 144.94 24.2274 145.06 24.1082C145.179 23.9591 145.209 23.8101 145.209 23.6312C145.209 23.4524 145.149 23.3331 145.06 23.2139C144.97 23.0946 144.821 23.0648 144.672 23.0648C144.493 23.0648 144.374 23.1245 144.255 23.2437C144.136 23.3629 144.106 23.512 144.106 23.6908C144.106 23.8399 144.136 23.9889 144.195 24.138C144.255 24.2871 144.374 24.4063 144.493 24.5553Z" fill="white"/>
<path d="M148.994 22.6177H152.273L152.243 23.0946H150.902V26.9104H150.365V23.0946H148.994V22.6177Z" fill="white"/>
<path d="M152.75 26.9103V22.6475H155.224L155.194 23.1244H153.287V24.4957H155.075V24.9429H153.287V26.4632H155.314L155.284 26.9401H152.75V26.9103Z" fill="white"/>
<path d="M158.176 22.5581C158.414 22.5581 158.623 22.5879 158.832 22.6177C159.04 22.6475 159.219 22.7072 159.368 22.7668L159.249 23.2437C159.1 23.1841 158.951 23.1543 158.772 23.1245C158.593 23.0947 158.414 23.0649 158.206 23.0649C157.997 23.0649 157.788 23.0947 157.579 23.1841C157.371 23.2736 157.192 23.363 157.043 23.512C156.894 23.6611 156.775 23.8399 156.685 24.0784C156.596 24.3169 156.536 24.5852 156.536 24.8833C156.536 25.1516 156.566 25.3603 156.655 25.5689C156.745 25.7776 156.864 25.9267 156.983 26.0757C157.103 26.2248 157.281 26.3142 157.46 26.3738C157.639 26.4334 157.818 26.4931 158.027 26.4931C158.414 26.4931 158.832 26.3738 159.189 26.1651L159.398 26.5825C159.189 26.7017 158.981 26.7912 158.772 26.8806C158.533 26.9402 158.295 26.9998 157.997 26.9998C157.699 26.9998 157.43 26.9402 157.162 26.8508C156.924 26.7614 156.715 26.6123 156.536 26.4334C156.357 26.2546 156.208 26.0161 156.119 25.7776C156.029 25.5093 155.97 25.241 155.97 24.9131C155.97 24.5554 156.029 24.2275 156.149 23.9592C156.268 23.6909 156.417 23.4226 156.626 23.2437C156.834 23.0351 157.043 22.886 157.341 22.7966C157.579 22.6177 157.848 22.5581 158.176 22.5581Z" fill="white"/>
<path d="M160.113 26.9103V22.6475H160.65V24.5255H163.035V22.6475H163.571V26.9103H163.035V24.9429H160.65V26.9103H160.113Z" fill="white"/>
<path d="M164.257 22.6177L164.675 22.5879L167.209 26.0161L167.179 24.7044V22.5879H167.686V26.9104L167.268 26.9402L164.704 23.4822L164.734 24.7342V26.9104H164.228V22.6177H164.257Z" fill="white"/>
<path d="M170.845 22.5581C171.144 22.5581 171.412 22.6177 171.68 22.7072C171.919 22.7966 172.157 22.9456 172.336 23.1245C172.515 23.3034 172.664 23.5418 172.753 23.8101C172.843 24.0784 172.902 24.3765 172.902 24.7044C172.902 25.0324 172.843 25.3603 172.753 25.6286C172.664 25.8969 172.515 26.1353 172.336 26.344C172.157 26.5527 171.948 26.7017 171.68 26.7912C171.442 26.9104 171.173 26.9402 170.875 26.9402C170.577 26.9402 170.309 26.8806 170.041 26.7912C169.772 26.7017 169.564 26.5527 169.385 26.3738C169.206 26.195 169.057 25.9565 168.967 25.6882C168.878 25.4199 168.818 25.1218 168.818 24.7939C168.818 24.4362 168.878 24.1381 168.967 23.8698C169.087 23.6015 169.206 23.363 169.415 23.1543C169.593 22.9754 169.802 22.8264 170.07 22.7072C170.279 22.6177 170.547 22.5581 170.845 22.5581ZM169.355 24.7939C169.355 25.0622 169.385 25.3007 169.474 25.5093C169.564 25.718 169.683 25.8969 169.832 26.0459C169.981 26.195 170.13 26.2844 170.309 26.3738C170.488 26.4334 170.667 26.4931 170.875 26.4931C171.054 26.4931 171.233 26.4633 171.412 26.3738C171.591 26.2844 171.74 26.195 171.889 26.0459C172.038 25.8969 172.127 25.718 172.217 25.5093C172.306 25.3007 172.336 25.0324 172.336 24.7641C172.336 24.4958 172.306 24.2573 172.217 24.0486C172.127 23.8399 172.038 23.6611 171.889 23.512C171.74 23.363 171.591 23.2736 171.412 23.1841C171.233 23.1245 171.024 23.0649 170.845 23.0649C170.667 23.0649 170.488 23.0947 170.309 23.1841C170.13 23.2736 169.981 23.363 169.832 23.512C169.683 23.6611 169.593 23.8399 169.504 24.0486C169.415 24.2573 169.355 24.5256 169.355 24.7939Z" fill="white"/>
<path d="M173.588 22.6177H174.124V26.4334H176.122L176.092 26.9104H173.618V22.6177H173.588Z" fill="white"/>
<path d="M178.595 22.5581C178.894 22.5581 179.162 22.6177 179.43 22.7072C179.669 22.7966 179.907 22.9456 180.086 23.1245C180.265 23.3034 180.414 23.5418 180.503 23.8101C180.593 24.0784 180.652 24.3765 180.652 24.7044C180.652 25.0324 180.593 25.3603 180.503 25.6286C180.414 25.8969 180.265 26.1353 180.086 26.344C179.907 26.5527 179.698 26.7017 179.43 26.7912C179.192 26.9104 178.923 26.9402 178.625 26.9402C178.327 26.9402 178.059 26.8806 177.791 26.7912C177.522 26.7017 177.314 26.5527 177.135 26.3738C176.956 26.195 176.807 25.9565 176.717 25.6882C176.628 25.4199 176.568 25.1218 176.568 24.7939C176.568 24.4362 176.628 24.1381 176.717 23.8698C176.837 23.6015 176.956 23.363 177.165 23.1543C177.343 22.9754 177.552 22.8264 177.82 22.7072C178.029 22.6177 178.297 22.5581 178.595 22.5581ZM177.105 24.7939C177.105 25.0622 177.135 25.3007 177.224 25.5093C177.314 25.718 177.433 25.8969 177.582 26.0459C177.731 26.195 177.88 26.2844 178.059 26.3738C178.238 26.4334 178.417 26.4931 178.625 26.4931C178.804 26.4931 178.983 26.4633 179.162 26.3738C179.341 26.2844 179.49 26.195 179.639 26.0459C179.788 25.8969 179.877 25.718 179.967 25.5093C180.056 25.3007 180.086 25.0324 180.086 24.7641C180.086 24.4958 180.056 24.2573 179.967 24.0486C179.877 23.8399 179.788 23.6611 179.639 23.512C179.49 23.363 179.341 23.2736 179.162 23.1841C178.983 23.1245 178.774 23.0649 178.595 23.0649C178.417 23.0649 178.238 23.0947 178.059 23.1841C177.88 23.2736 177.731 23.363 177.582 23.512C177.433 23.6611 177.343 23.8399 177.254 24.0486C177.165 24.2573 177.105 24.5256 177.105 24.7939Z" fill="white"/>
<path d="M183.752 22.5581C183.991 22.5581 184.2 22.5879 184.408 22.6177C184.617 22.6475 184.796 22.7072 184.945 22.7668L184.826 23.2437C184.677 23.1841 184.498 23.1543 184.319 23.1245C184.14 23.0947 183.931 23.0649 183.752 23.0649C183.514 23.0649 183.276 23.0947 183.037 23.1841C182.828 23.2437 182.62 23.363 182.471 23.512C182.322 23.6611 182.173 23.8399 182.083 24.0784C181.994 24.3169 181.934 24.5852 181.934 24.8833C181.934 25.1516 181.964 25.3901 182.053 25.5689C182.143 25.7776 182.262 25.9267 182.411 26.0757C182.56 26.2248 182.709 26.3142 182.918 26.3738C183.097 26.4334 183.305 26.4633 183.514 26.4633C183.723 26.4633 183.902 26.4334 184.08 26.4036C184.259 26.3738 184.408 26.344 184.528 26.2844V25.3305H183.484L183.514 24.8833H185.034V26.5825C184.826 26.7017 184.587 26.7614 184.319 26.8508C184.051 26.9104 183.782 26.9402 183.484 26.9402C183.156 26.9402 182.858 26.8806 182.62 26.7912C182.351 26.7017 182.143 26.5527 181.964 26.3738C181.785 26.195 181.636 25.9863 181.547 25.718C181.457 25.4497 181.397 25.1814 181.397 24.8535C181.397 24.4958 181.457 24.1679 181.576 23.8996C181.696 23.6015 181.845 23.363 182.053 23.1841C182.262 22.9754 182.5 22.8264 182.799 22.737C183.067 22.6177 183.395 22.5581 183.752 22.5581Z" fill="white"/>
<path d="M187.062 25.241L185.571 22.6475L186.197 22.6177L187.36 24.7342L188.523 22.6475H189.119L187.598 25.241V26.9402H187.062V25.241Z" fill="white"/>
<path d="M69.6392 5.3877H77.837C80.9969 5.3877 82.8153 6.66954 82.7855 9.05436C82.7855 10.6045 82.0403 11.6777 80.5796 12.2441C82.547 12.8105 83.4115 14.2115 83.4115 15.8809C83.4115 17.8782 82.1297 19.8159 78.1947 19.8159H69.6094V5.3877H69.6392ZM73.753 11.2305H76.6446C77.8668 11.2305 78.5525 10.7834 78.5525 9.88905C78.5525 8.99474 77.9264 8.54759 76.6446 8.54759H73.753V11.2305ZM73.753 16.6858H77.211C78.6121 16.6858 79.1785 16.0598 79.1785 15.2251C79.1785 14.5096 78.6717 13.7942 77.211 13.7942H73.753V16.6858Z" fill="white"/>
<path d="M89.1654 19.8457H85.29V5.3877H89.1654V19.8457Z" fill="white"/>
<path d="M103.415 8.69664H98.9729V19.8457H95.0975V8.69664H90.626V5.3877H103.415V8.69664Z" fill="white"/>
<path d="M126.368 5.02979C129.29 5.02979 131.883 6.46068 133.314 8.81569C134.029 9.97829 134.417 11.2601 134.417 12.6314C134.417 15.4038 132.867 17.878 130.393 19.2195C129.17 19.9051 127.829 20.233 126.368 20.233C124.907 20.233 123.566 19.9051 122.314 19.2195C121.092 18.5338 120.108 17.6097 119.392 16.4471C118.677 15.2845 118.319 14.0027 118.319 12.6314C118.319 9.85905 119.84 7.3848 122.314 6.04334C123.536 5.3577 124.907 5.02979 126.368 5.02979ZM126.338 8.75607C125.235 8.75607 124.311 9.14361 123.596 9.88886C122.88 10.6341 122.523 11.5582 122.523 12.6314C122.523 13.7046 122.88 14.6287 123.596 15.374C124.311 16.1192 125.235 16.5067 126.338 16.5067C127.441 16.5067 128.365 16.1192 129.081 15.374C129.796 14.6287 130.184 13.7046 130.184 12.6314C130.184 11.5582 129.826 10.6341 129.081 9.88886C128.365 9.14361 127.441 8.75607 126.338 8.75607Z" fill="white"/>
<path d="M115.189 14.6585C115.04 14.897 114.861 15.1355 114.653 15.3442C113.937 16.0894 113.013 16.477 111.91 16.477C110.807 16.477 109.883 16.0894 109.168 15.3442C108.452 14.5989 108.094 13.6748 108.094 12.6016C108.094 11.5285 108.452 10.6043 109.168 9.85908C109.913 9.11382 110.807 8.72629 111.91 8.72629C113.013 8.72629 113.937 9.11382 114.653 9.85908C114.861 10.0677 115.04 10.2764 115.159 10.5149L118.021 7.65312C116.531 5.98374 114.325 5 111.91 5C110.449 5 109.108 5.32791 107.856 6.01355C105.382 7.35501 103.861 9.82927 103.861 12.6016C103.861 13.9729 104.219 15.2547 104.935 16.4173C105.65 17.5799 106.634 18.5041 107.856 19.1897C109.108 19.8753 110.449 20.2032 111.91 20.2032C113.371 20.2032 114.712 19.8753 115.935 19.1897C116.739 18.7425 117.455 18.1761 118.051 17.5203L115.189 14.6585Z" fill="white"/>
<path d="M139.633 19.8457H135.758V5.3877H139.633V19.8457Z" fill="white"/>
<path d="M155.135 19.8457H151.14L145.357 11.7969V19.8457H141.571V5.3877H145.536L151.319 13.4365V5.3877H155.105V19.8457H155.135Z" fill="white"/>
<path d="M160.949 19.8457H157.073V5.3877H160.949V19.8457Z" fill="white"/>
<path d="M174.78 6.78854L173.17 9.79938C171.561 8.96469 169.653 8.45792 168.192 8.45792C167.387 8.45792 166.851 8.75602 166.851 9.41185C166.851 9.65033 167 9.859 167.268 9.97824C167.566 10.1273 168.222 10.336 169.325 10.6043C169.891 10.7533 170.339 10.8726 170.726 10.9918C171.471 11.2303 172.455 11.5582 173.021 11.8861C173.588 12.1842 174.244 12.691 174.572 13.1978C174.899 13.7045 175.108 14.42 175.108 15.2547C175.108 18.2953 172.843 19.9945 169.116 19.9945C166.433 19.9945 164.078 19.3387 162.081 17.9972L163.81 15.0758C165.658 16.1192 167.566 16.6557 169.563 16.6557C170.398 16.6557 171.024 16.3278 171.024 15.7316C171.024 15.3441 170.875 15.046 170.577 14.8969C170.279 14.7479 169.504 14.5392 168.252 14.2113L166.91 13.8536C166.195 13.6747 165.241 13.3468 164.704 13.0189C164.138 12.7208 163.542 12.2438 163.214 11.7669C162.916 11.2601 162.707 10.6043 162.707 9.79938C162.707 6.55006 165.33 5.08936 168.669 5.08936C170.965 5.17879 173.021 5.71537 174.78 6.78854Z" fill="white"/>
<path d="M188.076 8.69664H183.932V19.8457H180.057V8.69664H175.913V5.3877H188.105V8.69664H188.076Z" fill="white"/>
<path d="M67.5826 5.3877V26.9703H51.0677L46 21.9026V5.3877H67.5826Z" fill="#0099FD"/>
<path d="M60.339 15.7316C60.6967 15.5826 60.9948 15.3441 61.2035 15.0162C61.4419 14.7181 61.5612 14.3604 61.6208 13.9728C61.7997 12.7804 61.0246 11.6178 59.8918 11.4091L58.9379 11.2601L59.2062 9.73976L58.133 9.53109L57.8647 11.0514L56.8512 10.8725L57.1195 9.35223L56.0463 9.14355L55.778 10.6639L53.6615 10.2763L53.4528 11.588L54.526 11.7967L54.4962 12.0352L53.3932 18.6828L52.4989 18.5338L52.1113 20.0243L54.1682 20.3522L53.8999 21.9322L54.9731 22.1408L55.2414 20.5609L56.255 20.7696L55.9867 22.3495L57.03 22.5582L57.2983 20.9782L58.8783 21.2763C60.339 21.5446 61.7102 20.5013 61.9785 18.9511C62.217 17.5501 61.5016 16.2384 60.339 15.7316ZM59.4745 18.0866L59.4447 18.3549C59.2956 19.1598 58.61 19.6964 57.8647 19.5473L55.5097 19.1002L56.0463 15.9403L58.4013 16.3875C59.1167 16.5365 59.5937 17.2818 59.4745 18.0866ZM59.713 13.9132C59.5639 14.7181 58.8783 15.2547 58.133 15.1056L56.2251 14.7479L56.7021 11.8563L58.61 12.214C59.3552 12.3631 59.8322 13.1083 59.713 13.9132Z" fill="white"/>
</svg>
