<svg width="236" height="32" viewBox="0 0 236 32" fill="none" xmlns="http://www.w3.org/2000/svg">
<g clip-path="url(#clip0_1_12)">
<mask id="mask0_1_12" style="mask-type:luminance" maskUnits="userSpaceOnUse" x="0" y="0" width="236" height="32">
<path d="M236 0H0V32H236V0Z" fill="white"/>
</mask>
<g mask="url(#mask0_1_12)">
<path fill-rule="evenodd" clip-rule="evenodd" d="M135.48 1.21367C135.48 0.54338 136.029 9.32536e-07 136.706 8.15344e-07L141.413 0C142.09 -1.17198e-07 142.638 0.543379 142.638 1.21367V5.01368C142.638 5.68398 143.187 6.22735 143.864 6.22735H147.575C148.252 6.22735 148.8 6.77073 148.8 7.44102V24.559C148.8 25.2293 148.252 25.7726 147.575 25.7726H143.864C143.187 25.7726 142.638 26.316 142.638 26.9863V30.7863C142.638 31.4566 142.09 32 141.413 32H136.706C136.029 32 135.48 31.4566 135.48 30.7863V26.1231C135.48 25.4528 136.029 24.9094 136.706 24.9094H140.417C141.094 24.9094 141.643 24.3661 141.643 23.6958V8.30424C141.643 7.63394 141.094 7.09055 140.417 7.09055H136.706C136.029 7.09055 135.48 6.54718 135.48 5.87688V1.21367Z" fill="white" stroke="white"/>
<path fill-rule="evenodd" clip-rule="evenodd" d="M101.32 1.21367C101.32 0.54338 100.771 9.32536e-07 100.095 8.15344e-07L95.3873 0C94.7106 -1.17198e-07 94.1621 0.543379 94.1621 1.21367V5.01368C94.1621 5.68398 93.6135 6.22735 92.9369 6.22735H89.2252C88.5485 6.22735 88 6.77073 88 7.44102V24.559C88 25.2293 88.5485 25.7726 89.2252 25.7726H92.9369C93.6135 25.7726 94.1621 26.316 94.1621 26.9863V30.7863C94.1621 31.4566 94.7106 32 95.3873 32H100.095C100.771 32 101.32 31.4566 101.32 30.7863V26.1231C101.32 25.4528 100.771 24.9094 100.095 24.9094H96.3831C95.7065 24.9094 95.1579 24.3661 95.1579 23.6958V8.30424C95.1579 7.63394 95.7065 7.09055 96.3831 7.09055H100.095C100.771 7.09055 101.32 6.54718 101.32 5.87688V1.21367Z" fill="white" stroke="white"/>
<path fill-rule="evenodd" clip-rule="evenodd" d="M114.035 8.39515C114.035 7.8366 114.492 7.38379 115.056 7.38379L120.467 7.3838L125.402 7.38381C125.809 7.38381 126.177 7.62336 126.339 7.99344L128.016 11.8311C128.177 12.2012 128.545 12.4407 128.953 12.4407H132.413C132.977 12.4407 133.434 12.8935 133.434 13.4522V24.7798C133.434 25.3384 132.977 25.7912 132.413 25.7912H128.023C127.459 25.7912 127.002 25.3384 127.002 24.7798V14.2613C127.002 13.7027 126.545 13.2499 125.981 13.2499H121.489C120.925 13.2499 120.467 13.7027 120.467 14.2613V24.7797C120.467 25.3384 120.01 25.7912 119.447 25.7912H115.056C114.492 25.7912 114.035 25.3384 114.035 24.7797V8.39515Z" fill="white" stroke="white"/>
<path d="M103.624 8.39515C103.624 7.8366 104.081 7.38379 104.645 7.38379H109.035C109.599 7.38379 110.056 7.8366 110.056 8.39515V24.7797C110.056 25.3384 109.599 25.7912 109.035 25.7912H104.645C104.081 25.7912 103.624 25.3384 103.624 24.7797V8.39515Z" fill="white" stroke="white"/>
</g>
</g>
<defs>
<clipPath id="clip0_1_12">
<rect width="236" height="32" fill="white"/>
</clipPath>
</defs>
</svg>
