<svg width="236" height="32" viewBox="0 0 236 32" fill="none" xmlns="http://www.w3.org/2000/svg">
<path d="M109.32 3V11.3138L104.952 15.6529L109.32 19.992V29H181.739V3H109.32Z" fill="#F7A600"/>
<path d="M64.9043 19.1689C64.9043 20.2623 64.0906 21.0161 62.3361 21.0161H57.8785V17.3192H62.3361C64.0832 17.3192 64.9043 18.1002 64.9043 19.1689ZM64.3802 12.7619C64.3802 13.7264 63.6988 14.4975 61.9941 14.4975H57.8785V10.9345H61.9867C63.6913 10.9345 64.3727 11.7403 64.3727 12.7569M64.6597 15.6728C66.7587 15.4397 68.3835 14.1107 68.3835 12.2883C68.3835 9.56084 66.5216 7.78304 62.3286 7.78304H54V24.1924H62.8327C66.6863 24.1924 68.8876 22.5261 68.8876 19.6896C68.8876 17.344 66.891 15.9902 64.6672 15.6778M80.8402 11.2767H87.2095V7.788H70.5648V11.2767H76.8568V24.1924H80.8501L80.8402 11.2767ZM103.303 10.0815C101.955 8.47234 99.8684 7.47559 97.0631 7.47559C92.2661 7.47559 88.5173 10.9469 88.5173 15.9902C88.5173 21.0335 92.2611 24.5048 97.0356 24.5048C99.9907 24.5048 102.13 23.4336 103.46 21.7005L100.922 19.1515C99.9433 20.3243 98.925 21.0434 97.0231 21.0434C94.4025 21.0434 92.6454 19.0598 92.6454 15.9902C92.6454 12.9206 94.3651 10.9345 97.0381 10.9345C98.8002 10.9345 100.063 11.6585 100.807 12.5437L103.303 10.0815Z" fill="white"/>
<path d="M168.704 23.0841C172.947 23.0841 176.076 20.0417 176.076 15.6009C176.076 11.1602 172.942 8.10791 168.704 8.10791C164.466 8.10791 161.354 11.1503 161.354 15.591C161.354 20.0318 164.488 23.0841 168.704 23.0841ZM168.704 9.85596C171.836 9.85596 173.98 12.0875 173.98 15.6009C173.98 19.1144 171.836 21.3484 168.704 21.3484C165.571 21.3484 163.45 19.1169 163.45 15.6034C163.45 12.09 165.564 9.84604 168.704 9.84604V9.85596Z" fill="#2E2D2C"/>
<path d="M147.279 16.1858H156.172V22.8011H158.198V8.38037H156.172V14.47H147.279V8.38037H145.25V22.8011H147.279V16.1858Z" fill="#2E2D2C"/>
<path d="M135.828 23.0841C139.237 23.0841 141.449 21.3683 142.28 18.7127L140.483 17.7532C139.951 20.0318 138.454 21.3484 135.828 21.3484C132.878 21.3484 130.714 19.1169 130.714 15.5811C130.714 12.0454 132.868 9.82372 135.898 9.82372C138.246 9.82372 139.744 11.1056 140.343 13.0049L142.025 11.9065C141.082 9.57081 138.96 8.10791 135.898 8.10791C131.797 8.10791 128.625 11.1503 128.625 15.591C128.625 20.0318 131.797 23.0841 135.828 23.0841Z" fill="#2E2D2C"/>
<path d="M126.659 21.1076H117.536V16.1858H124.31V14.47H117.536V10.0763H126.451V8.38037H115.555V22.8011H126.659V21.1076Z" fill="#2E2D2C"/>
</svg>
