<svg width="236" height="32" viewBox="0 0 236 32" fill="none" xmlns="http://www.w3.org/2000/svg">
<path d="M53 4H62.549C64.3678 4 65.732 4.45471 66.7424 5.21257C67.854 6.12199 68.4602 7.43561 68.4602 9.05237C68.4602 10.9217 67.7024 12.0838 66.1867 12.7911V12.8922C68.2076 13.549 69.3697 15.3678 69.3697 17.5403C69.3697 19.6118 68.5613 21.2286 67.2477 22.239C66.1362 23.0474 64.7215 23.4011 62.8016 23.4011H53V4ZM61.589 11.5786C62.5995 11.5786 63.3574 11.0228 63.3574 9.86075C63.3574 8.74923 62.5995 8.19347 61.5385 8.19347H58.2545V11.528H61.589V11.5786ZM62.0437 19.1066C63.2058 19.1066 64.0647 18.3992 64.0647 17.1362C64.0647 15.772 63.1553 15.1657 62.0437 15.1657H58.305V19.1571H62.0437V19.1066Z" fill="white"/>
<path d="M70.2285 4H75.2304V23.4516H70.2285V4Z" fill="white"/>
<path d="M76.2412 16.5295C76.2412 12.134 79.0705 9.20361 83.4661 9.20361C87.8617 9.20361 90.6405 12.1845 90.6405 16.5295C90.6405 20.9251 87.8617 23.8555 83.4661 23.8555C79.0705 23.8555 76.2412 20.9251 76.2412 16.5295ZM85.6386 16.5295C85.6386 14.1044 84.8808 12.5887 83.3651 12.5887C81.8493 12.5887 81.142 14.1044 81.142 16.5295C81.142 18.9547 81.8493 20.5209 83.3651 20.5209C84.8808 20.4704 85.6386 18.9547 85.6386 16.5295Z" fill="white"/>
<path d="M91.1963 16.5295C91.1963 12.134 94.0256 9.20361 98.4212 9.20361C102.817 9.20361 105.545 12.134 105.545 16.5295C105.545 20.9251 102.766 23.8555 98.3706 23.8555C94.0256 23.8555 91.1963 20.9251 91.1963 16.5295ZM100.594 16.5295C100.594 14.1044 99.8358 12.5887 98.3201 12.5887C96.8044 12.5887 96.0971 14.1044 96.0971 16.5295C96.0971 18.9547 96.8044 20.5209 98.3201 20.5209C99.8358 20.4704 100.594 18.9547 100.594 16.5295Z" fill="white"/>
<path d="M106.555 9.55751H111.203V11.629H111.304C112.213 10.0122 113.476 9.15332 115.497 9.15332C117.266 9.15332 118.579 10.0122 119.236 11.5279H119.337C120.449 9.70908 121.914 9.15332 123.632 9.15332C126.865 9.15332 128.229 11.5279 128.229 14.7109V23.401H123.379V15.5698C123.379 14.1552 122.924 13.2457 121.712 13.2457C120.499 13.2457 119.893 14.3573 119.893 15.873V23.401H115.043V15.5698C115.043 14.1552 114.588 13.2457 113.375 13.2457C112.163 13.2457 111.557 14.3573 111.557 15.873V23.401H106.555V9.55751Z" fill="white"/>
<path d="M134.343 21.5822H134.293V23.4011H129.645V4H134.495V10.9723H134.596C135.505 9.7597 136.768 9.10289 138.537 9.10289C142.023 9.10289 144.044 12.2354 144.044 16.4288C144.044 21.1275 141.871 23.8558 138.234 23.8558C136.718 23.8558 135.152 23.1485 134.343 21.5822ZM139.042 16.3783C139.042 14.1553 138.234 12.6901 136.768 12.6901C135.253 12.6901 134.343 14.1553 134.343 16.3783C134.343 18.6013 135.303 20.0665 136.768 20.0665C138.234 20.0665 139.042 18.6519 139.042 16.3783Z" fill="white"/>
<path d="M144.6 16.4793C144.6 12.1342 147.479 9.15332 151.622 9.15332C153.694 9.15332 155.26 9.81013 156.473 10.9722C158.089 12.5384 158.797 14.9635 158.746 17.7929H149.45C149.652 19.5107 150.46 20.4201 151.926 20.4201C152.784 20.4201 153.542 20.0159 153.845 19.1065H158.544C157.736 22.2895 155.26 23.8557 151.774 23.8557C147.479 23.8052 144.6 20.8748 144.6 16.4793ZM149.45 15.0141H153.896C153.795 13.3468 152.885 12.4879 151.723 12.4879C150.359 12.4374 149.601 13.3973 149.45 15.0141Z" fill="white"/>
<path d="M164.254 11.9321H164.355C165.365 10.0122 166.679 9.25439 168.346 9.25439C168.75 9.25439 169.003 9.30492 169.154 9.40597V13.65H169.053C166.174 13.1447 164.506 14.5089 164.506 17.6413V23.4515H159.605V9.55754H164.254V11.9321Z" fill="white"/>
<path d="M169.659 23.4518H174.358C174.56 24.058 175.166 24.6138 176.328 24.6138C177.894 24.6138 178.45 23.6538 178.45 22.1887V21.1782H178.349C177.591 22.0876 176.53 22.7444 175.014 22.7444C172.033 22.7444 169.406 20.5214 169.406 16.1763C169.406 12.185 171.528 9.10303 174.762 9.10303C176.631 9.10303 177.743 9.86088 178.501 11.0229H178.602V9.50722H183.25V21.5319C183.25 23.7549 182.492 25.4727 181.33 26.4832C180.117 27.5442 178.399 27.9989 176.429 27.9989C172.69 28.0494 170.114 26.5337 169.659 23.4518ZM178.652 15.9742C178.652 14.2564 177.844 12.8418 176.429 12.8418C175.065 12.8418 174.206 14.0543 174.206 15.9742C174.206 17.8436 175.065 19.1572 176.429 19.1572C177.793 19.1572 178.652 17.7931 178.652 15.9742Z" fill="white"/>
</svg>
