<svg width="236" height="32" viewBox="0 0 236 32" fill="none" xmlns="http://www.w3.org/2000/svg">
<path d="M78.8545 22.9532H89.44V20.1616H82.0536V16.7377H88.1777V13.9438H82.0536V10.7916H89.4845V8H78.8545V22.9532Z" fill="white"/>
<path d="M102.185 17.4122L95.2508 8H90.4756L91.9627 9.89227V23H95.1594V13.1803L102.321 22.9532H105.384V8H102.185V17.4122Z" fill="white"/>
<path d="M74.0351 15.26C75.4403 14.9906 76.6112 13.6838 76.6112 11.8384C76.6019 9.84543 75.1616 8 72.2787 8H63L64.4403 9.84543V22.9602H72.6019C75.4871 22.9602 76.9719 21.1593 76.9719 18.9063C76.918 17.0539 75.6464 15.4778 74.0351 15.26ZM67.6393 10.8103H71.6487C72.7307 10.8103 73.4052 11.4426 73.4052 12.3864C73.4052 13.3302 72.7307 13.9625 71.6487 13.9625H67.6393V10.8103ZM71.7822 20.178H67.6393V16.7377H71.7822C73 16.7377 73.6745 17.5035 73.6745 18.4496C73.6745 19.5293 72.9532 20.1616 71.7822 20.1616V20.178Z" fill="white"/>
<path d="M152.183 17.4122H153.85V19.171C152.988 19.885 151.907 20.2818 150.787 20.2951C148.129 20.2951 146.239 18.2693 146.239 15.5222C146.239 12.7752 148.129 10.7471 150.787 10.7471C151.47 10.7527 152.141 10.9287 152.739 11.2592C153.337 11.5896 153.843 12.064 154.211 12.6393L156.733 11.2342C155.654 9.53162 153.759 8 150.743 8C146.508 8 142.996 10.9274 142.996 15.4778C142.996 20.0281 146.464 22.9532 150.743 22.9532C151.898 22.9723 153.044 22.7406 154.101 22.2741C155.159 21.8075 156.102 21.1171 156.867 20.2506V14.7119H150.021L152.183 17.4122Z" fill="white"/>
<path d="M137.771 17.4122L130.834 8H126.059L127.546 9.89227V23H130.745V13.1803L137.906 22.9532H140.967V8H137.771V17.4122Z" fill="white"/>
<path d="M167.45 8H161.281L162.766 9.89227L162.497 10.6112L157.722 23H161.326L162.263 20.4754H168.715L169.651 23H173.253L167.45 8ZM163.085 17.6393L165.427 11.1967L167.769 17.6393H163.085Z" fill="white"/>
<path d="M124.213 8H121.014V23H124.213V8Z" fill="white"/>
<path d="M118.447 10.5667V8H107.185V10.7916H114.258L107.185 20.3864V22.9532H118.583V20.1616H111.33L118.447 10.5667Z" fill="white"/>
</svg>
